  999
file created by SolveSpace
  0
SECTION
  2
HEADER
  9
$ACADVER
  1
AC1006
  9
$ANGDIR
  70
0
  9
$AUNITS
  70
0
  9
$AUPREC
  70
0
  9
$INSBASE
  10
0.0
  20
0.0
  30
0.0
  9
$EXTMIN
  10
0.0
  20
0.0
  9
$EXTMAX
  10
10000.0
  20
10000.0
  0
ENDSEC
  0
SECTION
  2
ENTITIES
  0
ARC
  8
0
  10
-1.778419
  20
2.752460
  30
0.000000
  40
0.250000
  50
0.000000
  51
90.000000
  0
ARC
  8
0
  10
-1.778419
  20
2.752460
  30
0.000000
  40
0.250000
  50
90.000000
  51
180.000000
  0
ARC
  8
0
  10
-1.778419
  20
2.752460
  30
0.000000
  40
0.250000
  50
-180.000000
  51
-90.000000
  0
ARC
  8
0
  10
-1.778419
  20
2.752460
  30
0.000000
  40
0.250000
  50
-90.000000
  51
0.000000
  0
ARC
  8
0
  10
-1.778419
  20
2.752460
  30
0.000000
  40
0.093750
  50
-90.000000
  51
0.000000
  0
ARC
  8
0
  10
-1.778419
  20
2.752460
  30
0.000000
  40
0.093750
  50
180.000000
  51
-90.000000
  0
ARC
  8
0
  10
-1.778419
  20
2.752460
  30
0.000000
  40
0.093750
  50
90.000000
  51
180.000000
  0
ARC
  8
0
  10
-1.778419
  20
2.752460
  30
0.000000
  40
0.093750
  50
0.000000
  51
90.000000
  0
ARC
  8
0
  10
-1.778419
  20
2.752460
  30
0.000000
  40
0.093750
  50
-90.000000
  51
0.000000
  0
ARC
  8
0
  10
-1.778419
  20
2.752460
  30
0.000000
  40
0.093750
  50
180.000000
  51
-90.000000
  0
ARC
  8
0
  10
-1.778419
  20
2.752460
  30
0.000000
  40
0.093750
  50
90.000000
  51
180.000000
  0
ARC
  8
0
  10
-1.778419
  20
2.752460
  30
0.000000
  40
0.093750
  50
0.000000
  51
90.000000
  0
ARC
  8
0
  10
-1.778419
  20
2.752460
  30
0.000000
  40
0.093750
  50
-90.000000
  51
0.000000
  0
ARC
  8
0
  10
-1.778419
  20
2.752460
  30
0.000000
  40
0.093750
  50
180.000000
  51
-90.000000
  0
ARC
  8
0
  10
-1.778419
  20
2.752460
  30
0.000000
  40
0.093750
  50
90.000000
  51
180.000000
  0
ARC
  8
0
  10
-1.778419
  20
2.752460
  30
0.000000
  40
0.093750
  50
0.000000
  51
90.000000
  0
ARC
  8
0
  10
-1.778419
  20
2.752460
  30
0.000000
  40
0.250000
  50
0.000000
  51
90.000000
  0
ARC
  8
0
  10
-1.778419
  20
2.752460
  30
0.000000
  40
0.250000
  50
90.000000
  51
180.000000
  0
ARC
  8
0
  10
-1.778419
  20
2.752460
  30
0.000000
  40
0.250000
  50
-180.000000
  51
-90.000000
  0
ARC
  8
0
  10
-1.778419
  20
2.752460
  30
0.000000
  40
0.250000
  50
-90.000000
  51
0.000000
  0
ARC
  8
0
  10
-1.228412
  20
2.752460
  30
0.000000
  40
0.093750
  50
0.000000
  51
90.000000
  0
ARC
  8
0
  10
-1.228412
  20
2.752460
  30
0.000000
  40
0.093750
  50
90.000000
  51
180.000000
  0
ARC
  8
0
  10
-1.228412
  20
2.752460
  30
0.000000
  40
0.093750
  50
180.000000
  51
-90.000000
  0
ARC
  8
0
  10
-1.228412
  20
2.752460
  30
0.000000
  40
0.093750
  50
-90.000000
  51
0.000000
  0
ARC
  8
0
  10
3.171641
  20
2.752460
  30
0.000000
  40
0.093750
  50
0.000000
  51
90.000000
  0
ARC
  8
0
  10
3.171641
  20
2.752460
  30
0.000000
  40
0.093750
  50
90.000000
  51
180.000000
  0
ARC
  8
0
  10
3.171641
  20
2.752460
  30
0.000000
  40
0.093750
  50
180.000000
  51
-90.000000
  0
ARC
  8
0
  10
3.171641
  20
2.752460
  30
0.000000
  40
0.093750
  50
-90.000000
  51
0.000000
  0
ARC
  8
0
  10
-0.128399
  20
2.752460
  30
0.000000
  40
0.093750
  50
0.000000
  51
90.000000
  0
ARC
  8
0
  10
-0.128399
  20
2.752460
  30
0.000000
  40
0.093750
  50
90.000000
  51
180.000000
  0
ARC
  8
0
  10
-0.128399
  20
2.752460
  30
0.000000
  40
0.093750
  50
180.000000
  51
-90.000000
  0
ARC
  8
0
  10
-0.128399
  20
2.752460
  30
0.000000
  40
0.093750
  50
-90.000000
  51
0.000000
  0
ARC
  8
0
  10
0.421608
  20
2.752460
  30
0.000000
  40
0.093750
  50
0.000000
  51
90.000000
  0
ARC
  8
0
  10
0.421608
  20
2.752460
  30
0.000000
  40
0.093750
  50
90.000000
  51
180.000000
  0
ARC
  8
0
  10
0.421608
  20
2.752460
  30
0.000000
  40
0.093750
  50
180.000000
  51
-90.000000
  0
ARC
  8
0
  10
0.421608
  20
2.752460
  30
0.000000
  40
0.093750
  50
-90.000000
  51
0.000000
  0
ARC
  8
0
  10
0.971615
  20
2.752460
  30
0.000000
  40
0.093750
  50
0.000000
  51
90.000000
  0
ARC
  8
0
  10
0.971615
  20
2.752460
  30
0.000000
  40
0.093750
  50
90.000000
  51
180.000000
  0
ARC
  8
0
  10
0.971615
  20
2.752460
  30
0.000000
  40
0.093750
  50
180.000000
  51
-90.000000
  0
ARC
  8
0
  10
0.971615
  20
2.752460
  30
0.000000
  40
0.093750
  50
-90.000000
  51
0.000000
  0
ARC
  8
0
  10
1.521621
  20
2.752460
  30
0.000000
  40
0.093750
  50
0.000000
  51
90.000000
  0
ARC
  8
0
  10
1.521621
  20
2.752460
  30
0.000000
  40
0.093750
  50
90.000000
  51
180.000000
  0
ARC
  8
0
  10
1.521621
  20
2.752460
  30
0.000000
  40
0.093750
  50
180.000000
  51
-90.000000
  0
ARC
  8
0
  10
1.521621
  20
2.752460
  30
0.000000
  40
0.093750
  50
-90.000000
  51
0.000000
  0
ARC
  8
0
  10
2.071628
  20
2.752460
  30
0.000000
  40
0.093750
  50
0.000000
  51
90.000000
  0
ARC
  8
0
  10
2.071628
  20
2.752460
  30
0.000000
  40
0.093750
  50
90.000000
  51
180.000000
  0
ARC
  8
0
  10
2.071628
  20
2.752460
  30
0.000000
  40
0.093750
  50
180.000000
  51
-90.000000
  0
ARC
  8
0
  10
2.071628
  20
2.752460
  30
0.000000
  40
0.093750
  50
-90.000000
  51
0.000000
  0
ARC
  8
0
  10
2.621635
  20
2.752460
  30
0.000000
  40
0.093750
  50
0.000000
  51
90.000000
  0
ARC
  8
0
  10
2.621635
  20
2.752460
  30
0.000000
  40
0.093750
  50
90.000000
  51
180.000000
  0
ARC
  8
0
  10
2.621635
  20
2.752460
  30
0.000000
  40
0.093750
  50
180.000000
  51
-90.000000
  0
ARC
  8
0
  10
2.621635
  20
2.752460
  30
0.000000
  40
0.093750
  50
-90.000000
  51
0.000000
  0
ARC
  8
0
  10
-1.778419
  20
2.752460
  30
0.000000
  40
0.250000
  50
0.000000
  51
90.000000
  0
ARC
  8
0
  10
-1.778419
  20
2.752460
  30
0.000000
  40
0.250000
  50
90.000000
  51
180.000000
  0
ARC
  8
0
  10
-1.778419
  20
2.752460
  30
0.000000
  40
0.250000
  50
-180.000000
  51
-90.000000
  0
ARC
  8
0
  10
-1.778419
  20
2.752460
  30
0.000000
  40
0.250000
  50
-90.000000
  51
0.000000
  0
ARC
  8
0
  10
-1.228412
  20
2.752460
  30
0.000000
  40
0.093750
  50
0.000000
  51
90.000000
  0
ARC
  8
0
  10
-1.228412
  20
2.752460
  30
0.000000
  40
0.093750
  50
90.000000
  51
180.000000
  0
ARC
  8
0
  10
-1.228412
  20
2.752460
  30
0.000000
  40
0.093750
  50
180.000000
  51
-90.000000
  0
ARC
  8
0
  10
-1.228412
  20
2.752460
  30
0.000000
  40
0.093750
  50
-90.000000
  51
0.000000
  0
ARC
  8
0
  10
3.171641
  20
2.752460
  30
0.000000
  40
0.093750
  50
0.000000
  51
90.000000
  0
ARC
  8
0
  10
3.171641
  20
2.752460
  30
0.000000
  40
0.093750
  50
90.000000
  51
180.000000
  0
ARC
  8
0
  10
3.171641
  20
2.752460
  30
0.000000
  40
0.093750
  50
180.000000
  51
-90.000000
  0
ARC
  8
0
  10
3.171641
  20
2.752460
  30
0.000000
  40
0.093750
  50
-90.000000
  51
0.000000
  0
ARC
  8
0
  10
-0.128399
  20
2.752460
  30
0.000000
  40
0.093750
  50
0.000000
  51
90.000000
  0
ARC
  8
0
  10
-0.128399
  20
2.752460
  30
0.000000
  40
0.093750
  50
90.000000
  51
180.000000
  0
ARC
  8
0
  10
-0.128399
  20
2.752460
  30
0.000000
  40
0.093750
  50
180.000000
  51
-90.000000
  0
ARC
  8
0
  10
-0.128399
  20
2.752460
  30
0.000000
  40
0.093750
  50
-90.000000
  51
0.000000
  0
ARC
  8
0
  10
0.421608
  20
2.752460
  30
0.000000
  40
0.093750
  50
0.000000
  51
90.000000
  0
ARC
  8
0
  10
0.421608
  20
2.752460
  30
0.000000
  40
0.093750
  50
90.000000
  51
180.000000
  0
ARC
  8
0
  10
0.421608
  20
2.752460
  30
0.000000
  40
0.093750
  50
180.000000
  51
-90.000000
  0
ARC
  8
0
  10
0.421608
  20
2.752460
  30
0.000000
  40
0.093750
  50
-90.000000
  51
0.000000
  0
ARC
  8
0
  10
0.971615
  20
2.752460
  30
0.000000
  40
0.093750
  50
0.000000
  51
90.000000
  0
ARC
  8
0
  10
0.971615
  20
2.752460
  30
0.000000
  40
0.093750
  50
90.000000
  51
180.000000
  0
ARC
  8
0
  10
0.971615
  20
2.752460
  30
0.000000
  40
0.093750
  50
180.000000
  51
-90.000000
  0
ARC
  8
0
  10
0.971615
  20
2.752460
  30
0.000000
  40
0.093750
  50
-90.000000
  51
0.000000
  0
ARC
  8
0
  10
1.521621
  20
2.752460
  30
0.000000
  40
0.093750
  50
0.000000
  51
90.000000
  0
ARC
  8
0
  10
1.521621
  20
2.752460
  30
0.000000
  40
0.093750
  50
90.000000
  51
180.000000
  0
ARC
  8
0
  10
1.521621
  20
2.752460
  30
0.000000
  40
0.093750
  50
180.000000
  51
-90.000000
  0
ARC
  8
0
  10
1.521621
  20
2.752460
  30
0.000000
  40
0.093750
  50
-90.000000
  51
0.000000
  0
ARC
  8
0
  10
2.071628
  20
2.752460
  30
0.000000
  40
0.093750
  50
0.000000
  51
90.000000
  0
ARC
  8
0
  10
2.071628
  20
2.752460
  30
0.000000
  40
0.093750
  50
90.000000
  51
180.000000
  0
ARC
  8
0
  10
2.071628
  20
2.752460
  30
0.000000
  40
0.093750
  50
180.000000
  51
-90.000000
  0
ARC
  8
0
  10
2.071628
  20
2.752460
  30
0.000000
  40
0.093750
  50
-90.000000
  51
0.000000
  0
ARC
  8
0
  10
2.621635
  20
2.752460
  30
0.000000
  40
0.093750
  50
0.000000
  51
90.000000
  0
ARC
  8
0
  10
2.621635
  20
2.752460
  30
0.000000
  40
0.093750
  50
90.000000
  51
180.000000
  0
ARC
  8
0
  10
2.621635
  20
2.752460
  30
0.000000
  40
0.093750
  50
180.000000
  51
-90.000000
  0
ARC
  8
0
  10
2.621635
  20
2.752460
  30
0.000000
  40
0.093750
  50
-90.000000
  51
0.000000
  0
ARC
  8
0
  10
-1.228412
  20
2.182273
  30
0.000000
  40
0.250000
  50
-0.000000
  51
90.000000
  0
ARC
  8
0
  10
-1.228412
  20
2.182273
  30
0.000000
  40
0.250000
  50
90.000000
  51
180.000000
  0
ARC
  8
0
  10
-1.228412
  20
2.182273
  30
0.000000
  40
0.250000
  50
180.000000
  51
-90.000000
  0
ARC
  8
0
  10
-1.228412
  20
2.182273
  30
0.000000
  40
0.250000
  50
-90.000000
  51
0.000000
  0
ARC
  8
0
  10
-1.228412
  20
2.182273
  30
0.000000
  40
0.093750
  50
-90.000000
  51
0.000000
  0
ARC
  8
0
  10
-1.228412
  20
2.182273
  30
0.000000
  40
0.093750
  50
180.000000
  51
-90.000000
  0
ARC
  8
0
  10
-1.228412
  20
2.182273
  30
0.000000
  40
0.093750
  50
90.000000
  51
180.000000
  0
ARC
  8
0
  10
-1.228412
  20
2.182273
  30
0.000000
  40
0.093750
  50
0.000000
  51
90.000000
  0
ARC
  8
0
  10
3.171641
  20
2.182273
  30
0.000000
  40
0.250000
  50
0.000000
  51
90.000000
  0
ARC
  8
0
  10
3.171641
  20
2.182273
  30
0.000000
  40
0.250000
  50
90.000000
  51
180.000000
  0
ARC
  8
0
  10
3.171641
  20
2.182273
  30
0.000000
  40
0.250000
  50
180.000000
  51
-90.000000
  0
ARC
  8
0
  10
3.171641
  20
2.182273
  30
0.000000
  40
0.250000
  50
-90.000000
  51
0.000000
  0
ARC
  8
0
  10
3.171641
  20
2.182273
  30
0.000000
  40
0.093750
  50
-90.000000
  51
0.000000
  0
ARC
  8
0
  10
3.171641
  20
2.182273
  30
0.000000
  40
0.093750
  50
180.000000
  51
-90.000000
  0
ARC
  8
0
  10
3.171641
  20
2.182273
  30
0.000000
  40
0.093750
  50
90.000000
  51
180.000000
  0
ARC
  8
0
  10
3.171641
  20
2.182273
  30
0.000000
  40
0.093750
  50
0.000000
  51
90.000000
  0
ARC
  8
0
  10
-0.678405
  20
2.182273
  30
0.000000
  40
0.250000
  50
0.000000
  51
90.000000
  0
ARC
  8
0
  10
-0.678405
  20
2.182273
  30
0.000000
  40
0.250000
  50
90.000000
  51
180.000000
  0
ARC
  8
0
  10
-0.678405
  20
2.182273
  30
0.000000
  40
0.250000
  50
180.000000
  51
-90.000000
  0
ARC
  8
0
  10
-0.678405
  20
2.182273
  30
0.000000
  40
0.250000
  50
-90.000000
  51
0.000000
  0
ARC
  8
0
  10
-0.678405
  20
2.182273
  30
0.000000
  40
0.093750
  50
-90.000000
  51
0.000000
  0
ARC
  8
0
  10
-0.678405
  20
2.182273
  30
0.000000
  40
0.093750
  50
180.000000
  51
-90.000000
  0
ARC
  8
0
  10
-0.678405
  20
2.182273
  30
0.000000
  40
0.093750
  50
90.000000
  51
180.000000
  0
ARC
  8
0
  10
-0.678405
  20
2.182273
  30
0.000000
  40
0.093750
  50
0.000000
  51
90.000000
  0
ARC
  8
0
  10
-0.128399
  20
2.182273
  30
0.000000
  40
0.250000
  50
0.000000
  51
90.000000
  0
ARC
  8
0
  10
-0.128399
  20
2.182273
  30
0.000000
  40
0.250000
  50
90.000000
  51
180.000000
  0
ARC
  8
0
  10
-0.128399
  20
2.182273
  30
0.000000
  40
0.250000
  50
180.000000
  51
-90.000000
  0
ARC
  8
0
  10
-0.128399
  20
2.182273
  30
0.000000
  40
0.250000
  50
-90.000000
  51
0.000000
  0
ARC
  8
0
  10
-0.128399
  20
2.182273
  30
0.000000
  40
0.093750
  50
-90.000000
  51
0.000000
  0
ARC
  8
0
  10
-0.128399
  20
2.182273
  30
0.000000
  40
0.093750
  50
180.000000
  51
-90.000000
  0
ARC
  8
0
  10
-0.128399
  20
2.182273
  30
0.000000
  40
0.093750
  50
90.000000
  51
180.000000
  0
ARC
  8
0
  10
-0.128399
  20
2.182273
  30
0.000000
  40
0.093750
  50
0.000000
  51
90.000000
  0
ARC
  8
0
  10
0.421608
  20
2.182273
  30
0.000000
  40
0.250000
  50
0.000000
  51
90.000000
  0
ARC
  8
0
  10
0.421608
  20
2.182273
  30
0.000000
  40
0.250000
  50
90.000000
  51
180.000000
  0
ARC
  8
0
  10
0.421608
  20
2.182273
  30
0.000000
  40
0.250000
  50
180.000000
  51
-90.000000
  0
ARC
  8
0
  10
0.421608
  20
2.182273
  30
0.000000
  40
0.250000
  50
-90.000000
  51
0.000000
  0
ARC
  8
0
  10
0.421608
  20
2.182273
  30
0.000000
  40
0.093750
  50
-90.000000
  51
0.000000
  0
ARC
  8
0
  10
0.421608
  20
2.182273
  30
0.000000
  40
0.093750
  50
180.000000
  51
-90.000000
  0
ARC
  8
0
  10
0.421608
  20
2.182273
  30
0.000000
  40
0.093750
  50
90.000000
  51
180.000000
  0
ARC
  8
0
  10
0.421608
  20
2.182273
  30
0.000000
  40
0.093750
  50
0.000000
  51
90.000000
  0
ARC
  8
0
  10
0.971615
  20
2.182273
  30
0.000000
  40
0.250000
  50
0.000000
  51
90.000000
  0
ARC
  8
0
  10
0.971615
  20
2.182273
  30
0.000000
  40
0.250000
  50
90.000000
  51
180.000000
  0
ARC
  8
0
  10
0.971615
  20
2.182273
  30
0.000000
  40
0.250000
  50
180.000000
  51
-90.000000
  0
ARC
  8
0
  10
0.971615
  20
2.182273
  30
0.000000
  40
0.250000
  50
-90.000000
  51
0.000000
  0
ARC
  8
0
  10
0.971615
  20
2.182273
  30
0.000000
  40
0.093750
  50
-90.000000
  51
0.000000
  0
ARC
  8
0
  10
0.971615
  20
2.182273
  30
0.000000
  40
0.093750
  50
180.000000
  51
-90.000000
  0
ARC
  8
0
  10
0.971615
  20
2.182273
  30
0.000000
  40
0.093750
  50
90.000000
  51
180.000000
  0
ARC
  8
0
  10
0.971615
  20
2.182273
  30
0.000000
  40
0.093750
  50
0.000000
  51
90.000000
  0
ARC
  8
0
  10
1.521621
  20
2.182273
  30
0.000000
  40
0.250000
  50
0.000000
  51
90.000000
  0
ARC
  8
0
  10
1.521621
  20
2.182273
  30
0.000000
  40
0.250000
  50
90.000000
  51
180.000000
  0
ARC
  8
0
  10
1.521621
  20
2.182273
  30
0.000000
  40
0.250000
  50
180.000000
  51
-90.000000
  0
ARC
  8
0
  10
1.521621
  20
2.182273
  30
0.000000
  40
0.250000
  50
-90.000000
  51
0.000000
  0
ARC
  8
0
  10
1.521621
  20
2.182273
  30
0.000000
  40
0.093750
  50
-90.000000
  51
0.000000
  0
ARC
  8
0
  10
1.521621
  20
2.182273
  30
0.000000
  40
0.093750
  50
180.000000
  51
-90.000000
  0
ARC
  8
0
  10
1.521621
  20
2.182273
  30
0.000000
  40
0.093750
  50
90.000000
  51
180.000000
  0
ARC
  8
0
  10
1.521621
  20
2.182273
  30
0.000000
  40
0.093750
  50
0.000000
  51
90.000000
  0
ARC
  8
0
  10
2.071628
  20
2.182273
  30
0.000000
  40
0.250000
  50
0.000000
  51
90.000000
  0
ARC
  8
0
  10
2.071628
  20
2.182273
  30
0.000000
  40
0.250000
  50
90.000000
  51
180.000000
  0
ARC
  8
0
  10
2.071628
  20
2.182273
  30
0.000000
  40
0.250000
  50
180.000000
  51
-90.000000
  0
ARC
  8
0
  10
2.071628
  20
2.182273
  30
0.000000
  40
0.250000
  50
-90.000000
  51
0.000000
  0
ARC
  8
0
  10
2.071628
  20
2.182273
  30
0.000000
  40
0.093750
  50
-90.000000
  51
0.000000
  0
ARC
  8
0
  10
2.071628
  20
2.182273
  30
0.000000
  40
0.093750
  50
180.000000
  51
-90.000000
  0
ARC
  8
0
  10
2.071628
  20
2.182273
  30
0.000000
  40
0.093750
  50
90.000000
  51
180.000000
  0
ARC
  8
0
  10
2.071628
  20
2.182273
  30
0.000000
  40
0.093750
  50
0.000000
  51
90.000000
  0
ARC
  8
0
  10
2.621635
  20
2.182273
  30
0.000000
  40
0.250000
  50
0.000000
  51
90.000000
  0
ARC
  8
0
  10
2.621635
  20
2.182273
  30
0.000000
  40
0.250000
  50
90.000000
  51
-180.000000
  0
ARC
  8
0
  10
2.621635
  20
2.182273
  30
0.000000
  40
0.250000
  50
180.000000
  51
-90.000000
  0
ARC
  8
0
  10
2.621635
  20
2.182273
  30
0.000000
  40
0.250000
  50
-90.000000
  51
0.000000
  0
ARC
  8
0
  10
2.621635
  20
2.182273
  30
0.000000
  40
0.093750
  50
-90.000000
  51
0.000000
  0
ARC
  8
0
  10
2.621635
  20
2.182273
  30
0.000000
  40
0.093750
  50
180.000000
  51
-90.000000
  0
ARC
  8
0
  10
2.621635
  20
2.182273
  30
0.000000
  40
0.093750
  50
90.000000
  51
180.000000
  0
ARC
  8
0
  10
2.621635
  20
2.182273
  30
0.000000
  40
0.093750
  50
0.000000
  51
90.000000
  0
ARC
  8
0
  10
-1.778419
  20
-2.379227
  30
0.000000
  40
0.250000
  50
0.000000
  51
90.000000
  0
ARC
  8
0
  10
-1.778419
  20
-2.379227
  30
0.000000
  40
0.250000
  50
90.000000
  51
180.000000
  0
ARC
  8
0
  10
-1.778419
  20
-2.379227
  30
0.000000
  40
0.250000
  50
-180.000000
  51
-90.000000
  0
ARC
  8
0
  10
-1.778419
  20
-2.379227
  30
0.000000
  40
0.250000
  50
-90.000000
  51
0.000000
  0
ARC
  8
0
  10
-1.778419
  20
-2.379227
  30
0.000000
  40
0.093750
  50
-90.000000
  51
0.000000
  0
ARC
  8
0
  10
-1.778419
  20
-2.379227
  30
0.000000
  40
0.093750
  50
180.000000
  51
-90.000000
  0
ARC
  8
0
  10
-1.778419
  20
-2.379227
  30
0.000000
  40
0.093750
  50
90.000000
  51
180.000000
  0
ARC
  8
0
  10
-1.778419
  20
-2.379227
  30
0.000000
  40
0.093750
  50
0.000000
  51
90.000000
  0
ARC
  8
0
  10
-1.228412
  20
-2.379227
  30
0.000000
  40
0.250000
  50
-0.000000
  51
90.000000
  0
ARC
  8
0
  10
-1.228412
  20
-2.379227
  30
0.000000
  40
0.250000
  50
90.000000
  51
180.000000
  0
ARC
  8
0
  10
-1.228412
  20
-2.379227
  30
0.000000
  40
0.250000
  50
180.000000
  51
-90.000000
  0
ARC
  8
0
  10
-1.228412
  20
-2.379227
  30
0.000000
  40
0.250000
  50
-90.000000
  51
0.000000
  0
ARC
  8
0
  10
-1.228412
  20
-2.379227
  30
0.000000
  40
0.093750
  50
-90.000000
  51
0.000000
  0
ARC
  8
0
  10
-1.228412
  20
-2.379227
  30
0.000000
  40
0.093750
  50
180.000000
  51
-90.000000
  0
ARC
  8
0
  10
-1.228412
  20
-2.379227
  30
0.000000
  40
0.093750
  50
90.000000
  51
180.000000
  0
ARC
  8
0
  10
-1.228412
  20
-2.379227
  30
0.000000
  40
0.093750
  50
0.000000
  51
90.000000
  0
ARC
  8
0
  10
3.171641
  20
-2.379227
  30
0.000000
  40
0.250000
  50
0.000000
  51
90.000000
  0
ARC
  8
0
  10
3.171641
  20
-2.379227
  30
0.000000
  40
0.250000
  50
90.000000
  51
180.000000
  0
ARC
  8
0
  10
3.171641
  20
-2.379227
  30
0.000000
  40
0.250000
  50
180.000000
  51
-90.000000
  0
ARC
  8
0
  10
3.171641
  20
-2.379227
  30
0.000000
  40
0.250000
  50
-90.000000
  51
0.000000
  0
ARC
  8
0
  10
3.171641
  20
-2.379227
  30
0.000000
  40
0.093750
  50
-90.000000
  51
0.000000
  0
ARC
  8
0
  10
3.171641
  20
-2.379227
  30
0.000000
  40
0.093750
  50
180.000000
  51
-90.000000
  0
ARC
  8
0
  10
3.171641
  20
-2.379227
  30
0.000000
  40
0.093750
  50
90.000000
  51
180.000000
  0
ARC
  8
0
  10
3.171641
  20
-2.379227
  30
0.000000
  40
0.093750
  50
0.000000
  51
90.000000
  0
ARC
  8
0
  10
-0.678405
  20
-2.379227
  30
0.000000
  40
0.250000
  50
0.000000
  51
90.000000
  0
ARC
  8
0
  10
-0.678405
  20
-2.379227
  30
0.000000
  40
0.250000
  50
90.000000
  51
180.000000
  0
ARC
  8
0
  10
-0.678405
  20
-2.379227
  30
0.000000
  40
0.250000
  50
180.000000
  51
-90.000000
  0
ARC
  8
0
  10
-0.678405
  20
-2.379227
  30
0.000000
  40
0.250000
  50
-90.000000
  51
0.000000
  0
ARC
  8
0
  10
-0.678405
  20
-2.379227
  30
0.000000
  40
0.093750
  50
-90.000000
  51
0.000000
  0
ARC
  8
0
  10
-0.678405
  20
-2.379227
  30
0.000000
  40
0.093750
  50
180.000000
  51
-90.000000
  0
ARC
  8
0
  10
-0.678405
  20
-2.379227
  30
0.000000
  40
0.093750
  50
90.000000
  51
180.000000
  0
ARC
  8
0
  10
-0.678405
  20
-2.379227
  30
0.000000
  40
0.093750
  50
0.000000
  51
90.000000
  0
ARC
  8
0
  10
-0.128399
  20
-2.379227
  30
0.000000
  40
0.250000
  50
0.000000
  51
90.000000
  0
ARC
  8
0
  10
-0.128399
  20
-2.379227
  30
0.000000
  40
0.250000
  50
90.000000
  51
180.000000
  0
ARC
  8
0
  10
-0.128399
  20
-2.379227
  30
0.000000
  40
0.250000
  50
180.000000
  51
-90.000000
  0
ARC
  8
0
  10
-0.128399
  20
-2.379227
  30
0.000000
  40
0.250000
  50
-90.000000
  51
0.000000
  0
ARC
  8
0
  10
-0.128399
  20
-2.379227
  30
0.000000
  40
0.093750
  50
-90.000000
  51
0.000000
  0
ARC
  8
0
  10
-0.128399
  20
-2.379227
  30
0.000000
  40
0.093750
  50
180.000000
  51
-90.000000
  0
ARC
  8
0
  10
-0.128399
  20
-2.379227
  30
0.000000
  40
0.093750
  50
90.000000
  51
180.000000
  0
ARC
  8
0
  10
-0.128399
  20
-2.379227
  30
0.000000
  40
0.093750
  50
0.000000
  51
90.000000
  0
ARC
  8
0
  10
0.421608
  20
-2.379227
  30
0.000000
  40
0.250000
  50
0.000000
  51
90.000000
  0
ARC
  8
0
  10
0.421608
  20
-2.379227
  30
0.000000
  40
0.250000
  50
90.000000
  51
180.000000
  0
ARC
  8
0
  10
0.421608
  20
-2.379227
  30
0.000000
  40
0.250000
  50
180.000000
  51
-90.000000
  0
ARC
  8
0
  10
0.421608
  20
-2.379227
  30
0.000000
  40
0.250000
  50
-90.000000
  51
0.000000
  0
ARC
  8
0
  10
0.421608
  20
-2.379227
  30
0.000000
  40
0.093750
  50
-90.000000
  51
0.000000
  0
ARC
  8
0
  10
0.421608
  20
-2.379227
  30
0.000000
  40
0.093750
  50
180.000000
  51
-90.000000
  0
ARC
  8
0
  10
0.421608
  20
-2.379227
  30
0.000000
  40
0.093750
  50
90.000000
  51
180.000000
  0
ARC
  8
0
  10
0.421608
  20
-2.379227
  30
0.000000
  40
0.093750
  50
0.000000
  51
90.000000
  0
ARC
  8
0
  10
0.971615
  20
-2.379227
  30
0.000000
  40
0.250000
  50
0.000000
  51
90.000000
  0
ARC
  8
0
  10
0.971615
  20
-2.379227
  30
0.000000
  40
0.250000
  50
90.000000
  51
180.000000
  0
ARC
  8
0
  10
0.971615
  20
-2.379227
  30
0.000000
  40
0.250000
  50
180.000000
  51
-90.000000
  0
ARC
  8
0
  10
0.971615
  20
-2.379227
  30
0.000000
  40
0.250000
  50
-90.000000
  51
0.000000
  0
ARC
  8
0
  10
0.971615
  20
-2.379227
  30
0.000000
  40
0.093750
  50
-90.000000
  51
0.000000
  0
ARC
  8
0
  10
0.971615
  20
-2.379227
  30
0.000000
  40
0.093750
  50
180.000000
  51
-90.000000
  0
ARC
  8
0
  10
0.971615
  20
-2.379227
  30
0.000000
  40
0.093750
  50
90.000000
  51
180.000000
  0
ARC
  8
0
  10
0.971615
  20
-2.379227
  30
0.000000
  40
0.093750
  50
0.000000
  51
90.000000
  0
ARC
  8
0
  10
1.521621
  20
-2.379227
  30
0.000000
  40
0.250000
  50
0.000000
  51
90.000000
  0
ARC
  8
0
  10
1.521621
  20
-2.379227
  30
0.000000
  40
0.250000
  50
90.000000
  51
180.000000
  0
ARC
  8
0
  10
1.521621
  20
-2.379227
  30
0.000000
  40
0.250000
  50
180.000000
  51
-90.000000
  0
ARC
  8
0
  10
1.521621
  20
-2.379227
  30
0.000000
  40
0.250000
  50
-90.000000
  51
0.000000
  0
ARC
  8
0
  10
1.521621
  20
-2.379227
  30
0.000000
  40
0.093750
  50
-90.000000
  51
0.000000
  0
ARC
  8
0
  10
1.521621
  20
-2.379227
  30
0.000000
  40
0.093750
  50
180.000000
  51
-90.000000
  0
ARC
  8
0
  10
1.521621
  20
-2.379227
  30
0.000000
  40
0.093750
  50
90.000000
  51
180.000000
  0
ARC
  8
0
  10
1.521621
  20
-2.379227
  30
0.000000
  40
0.093750
  50
0.000000
  51
90.000000
  0
ARC
  8
0
  10
2.071628
  20
-2.379227
  30
0.000000
  40
0.250000
  50
0.000000
  51
90.000000
  0
ARC
  8
0
  10
2.071628
  20
-2.379227
  30
0.000000
  40
0.250000
  50
90.000000
  51
180.000000
  0
ARC
  8
0
  10
2.071628
  20
-2.379227
  30
0.000000
  40
0.250000
  50
180.000000
  51
-90.000000
  0
ARC
  8
0
  10
2.071628
  20
-2.379227
  30
0.000000
  40
0.250000
  50
-90.000000
  51
0.000000
  0
ARC
  8
0
  10
2.071628
  20
-2.379227
  30
0.000000
  40
0.093750
  50
-90.000000
  51
0.000000
  0
ARC
  8
0
  10
2.071628
  20
-2.379227
  30
0.000000
  40
0.093750
  50
180.000000
  51
-90.000000
  0
ARC
  8
0
  10
2.071628
  20
-2.379227
  30
0.000000
  40
0.093750
  50
90.000000
  51
180.000000
  0
ARC
  8
0
  10
2.071628
  20
-2.379227
  30
0.000000
  40
0.093750
  50
0.000000
  51
90.000000
  0
ARC
  8
0
  10
2.621635
  20
-2.379227
  30
0.000000
  40
0.250000
  50
0.000000
  51
90.000000
  0
ARC
  8
0
  10
2.621635
  20
-2.379227
  30
0.000000
  40
0.250000
  50
90.000000
  51
-180.000000
  0
ARC
  8
0
  10
2.621635
  20
-2.379227
  30
0.000000
  40
0.250000
  50
180.000000
  51
-90.000000
  0
ARC
  8
0
  10
2.621635
  20
-2.379227
  30
0.000000
  40
0.250000
  50
-90.000000
  51
0.000000
  0
ARC
  8
0
  10
2.621635
  20
-2.379227
  30
0.000000
  40
0.093750
  50
-90.000000
  51
0.000000
  0
ARC
  8
0
  10
2.621635
  20
-2.379227
  30
0.000000
  40
0.093750
  50
180.000000
  51
-90.000000
  0
ARC
  8
0
  10
2.621635
  20
-2.379227
  30
0.000000
  40
0.093750
  50
90.000000
  51
180.000000
  0
ARC
  8
0
  10
2.621635
  20
-2.379227
  30
0.000000
  40
0.093750
  50
0.000000
  51
90.000000
  0
ARC
  8
0
  10
-1.778419
  20
1.612085
  30
0.000000
  40
0.250000
  50
0.000000
  51
90.000000
  0
ARC
  8
0
  10
-1.778419
  20
1.612085
  30
0.000000
  40
0.250000
  50
90.000000
  51
180.000000
  0
ARC
  8
0
  10
-1.778419
  20
1.612085
  30
0.000000
  40
0.250000
  50
-180.000000
  51
-90.000000
  0
ARC
  8
0
  10
-1.778419
  20
1.612085
  30
0.000000
  40
0.250000
  50
-90.000000
  51
0.000000
  0
ARC
  8
0
  10
-1.778419
  20
1.612085
  30
0.000000
  40
0.093750
  50
-90.000000
  51
0.000000
  0
ARC
  8
0
  10
-1.778419
  20
1.612085
  30
0.000000
  40
0.093750
  50
180.000000
  51
-90.000000
  0
ARC
  8
0
  10
-1.778419
  20
1.612085
  30
0.000000
  40
0.093750
  50
90.000000
  51
180.000000
  0
ARC
  8
0
  10
-1.778419
  20
1.612085
  30
0.000000
  40
0.093750
  50
0.000000
  51
90.000000
  0
ARC
  8
0
  10
-1.228412
  20
1.612085
  30
0.000000
  40
0.250000
  50
-0.000000
  51
90.000000
  0
ARC
  8
0
  10
-1.228412
  20
1.612085
  30
0.000000
  40
0.250000
  50
90.000000
  51
180.000000
  0
ARC
  8
0
  10
-1.228412
  20
1.612085
  30
0.000000
  40
0.250000
  50
180.000000
  51
-90.000000
  0
ARC
  8
0
  10
-1.228412
  20
1.612085
  30
0.000000
  40
0.250000
  50
-90.000000
  51
0.000000
  0
ARC
  8
0
  10
-1.228412
  20
1.612085
  30
0.000000
  40
0.093750
  50
-90.000000
  51
0.000000
  0
ARC
  8
0
  10
-1.228412
  20
1.612085
  30
0.000000
  40
0.093750
  50
180.000000
  51
-90.000000
  0
ARC
  8
0
  10
-1.228412
  20
1.612085
  30
0.000000
  40
0.093750
  50
90.000000
  51
180.000000
  0
ARC
  8
0
  10
-1.228412
  20
1.612085
  30
0.000000
  40
0.093750
  50
0.000000
  51
90.000000
  0
ARC
  8
0
  10
3.171641
  20
1.612085
  30
0.000000
  40
0.250000
  50
0.000000
  51
90.000000
  0
ARC
  8
0
  10
3.171641
  20
1.612085
  30
0.000000
  40
0.250000
  50
90.000000
  51
180.000000
  0
ARC
  8
0
  10
3.171641
  20
1.612085
  30
0.000000
  40
0.250000
  50
180.000000
  51
-90.000000
  0
ARC
  8
0
  10
3.171641
  20
1.612085
  30
0.000000
  40
0.250000
  50
-90.000000
  51
0.000000
  0
ARC
  8
0
  10
3.171641
  20
1.612085
  30
0.000000
  40
0.093750
  50
-90.000000
  51
0.000000
  0
ARC
  8
0
  10
3.171641
  20
1.612085
  30
0.000000
  40
0.093750
  50
180.000000
  51
-90.000000
  0
ARC
  8
0
  10
3.171641
  20
1.612085
  30
0.000000
  40
0.093750
  50
90.000000
  51
180.000000
  0
ARC
  8
0
  10
3.171641
  20
1.612085
  30
0.000000
  40
0.093750
  50
0.000000
  51
90.000000
  0
ARC
  8
0
  10
-0.678405
  20
1.612085
  30
0.000000
  40
0.250000
  50
0.000000
  51
90.000000
  0
ARC
  8
0
  10
-0.678405
  20
1.612085
  30
0.000000
  40
0.250000
  50
90.000000
  51
180.000000
  0
ARC
  8
0
  10
-0.678405
  20
1.612085
  30
0.000000
  40
0.250000
  50
180.000000
  51
-90.000000
  0
ARC
  8
0
  10
-0.678405
  20
1.612085
  30
0.000000
  40
0.250000
  50
-90.000000
  51
0.000000
  0
ARC
  8
0
  10
-0.678405
  20
1.612085
  30
0.000000
  40
0.093750
  50
-90.000000
  51
0.000000
  0
ARC
  8
0
  10
-0.678405
  20
1.612085
  30
0.000000
  40
0.093750
  50
180.000000
  51
-90.000000
  0
ARC
  8
0
  10
-0.678405
  20
1.612085
  30
0.000000
  40
0.093750
  50
90.000000
  51
180.000000
  0
ARC
  8
0
  10
-0.678405
  20
1.612085
  30
0.000000
  40
0.093750
  50
0.000000
  51
90.000000
  0
ARC
  8
0
  10
-0.128399
  20
1.612085
  30
0.000000
  40
0.250000
  50
0.000000
  51
90.000000
  0
ARC
  8
0
  10
-0.128399
  20
1.612085
  30
0.000000
  40
0.250000
  50
90.000000
  51
180.000000
  0
ARC
  8
0
  10
-0.128399
  20
1.612085
  30
0.000000
  40
0.250000
  50
180.000000
  51
-90.000000
  0
ARC
  8
0
  10
-0.128399
  20
1.612085
  30
0.000000
  40
0.250000
  50
-90.000000
  51
0.000000
  0
ARC
  8
0
  10
-0.128399
  20
1.612085
  30
0.000000
  40
0.093750
  50
-90.000000
  51
0.000000
  0
ARC
  8
0
  10
-0.128399
  20
1.612085
  30
0.000000
  40
0.093750
  50
180.000000
  51
-90.000000
  0
ARC
  8
0
  10
-0.128399
  20
1.612085
  30
0.000000
  40
0.093750
  50
90.000000
  51
180.000000
  0
ARC
  8
0
  10
-0.128399
  20
1.612085
  30
0.000000
  40
0.093750
  50
0.000000
  51
90.000000
  0
ARC
  8
0
  10
0.421608
  20
1.612085
  30
0.000000
  40
0.250000
  50
0.000000
  51
90.000000
  0
ARC
  8
0
  10
0.421608
  20
1.612085
  30
0.000000
  40
0.250000
  50
90.000000
  51
180.000000
  0
ARC
  8
0
  10
0.421608
  20
1.612085
  30
0.000000
  40
0.250000
  50
180.000000
  51
-90.000000
  0
ARC
  8
0
  10
0.421608
  20
1.612085
  30
0.000000
  40
0.250000
  50
-90.000000
  51
0.000000
  0
ARC
  8
0
  10
0.421608
  20
1.612085
  30
0.000000
  40
0.093750
  50
-90.000000
  51
0.000000
  0
ARC
  8
0
  10
0.421608
  20
1.612085
  30
0.000000
  40
0.093750
  50
180.000000
  51
-90.000000
  0
ARC
  8
0
  10
0.421608
  20
1.612085
  30
0.000000
  40
0.093750
  50
90.000000
  51
180.000000
  0
ARC
  8
0
  10
0.421608
  20
1.612085
  30
0.000000
  40
0.093750
  50
0.000000
  51
90.000000
  0
ARC
  8
0
  10
0.971615
  20
1.612085
  30
0.000000
  40
0.250000
  50
0.000000
  51
90.000000
  0
ARC
  8
0
  10
0.971615
  20
1.612085
  30
0.000000
  40
0.250000
  50
90.000000
  51
180.000000
  0
ARC
  8
0
  10
0.971615
  20
1.612085
  30
0.000000
  40
0.250000
  50
180.000000
  51
-90.000000
  0
ARC
  8
0
  10
0.971615
  20
1.612085
  30
0.000000
  40
0.250000
  50
-90.000000
  51
0.000000
  0
ARC
  8
0
  10
0.971615
  20
1.612085
  30
0.000000
  40
0.093750
  50
-90.000000
  51
0.000000
  0
ARC
  8
0
  10
0.971615
  20
1.612085
  30
0.000000
  40
0.093750
  50
180.000000
  51
-90.000000
  0
ARC
  8
0
  10
0.971615
  20
1.612085
  30
0.000000
  40
0.093750
  50
90.000000
  51
180.000000
  0
ARC
  8
0
  10
0.971615
  20
1.612085
  30
0.000000
  40
0.093750
  50
0.000000
  51
90.000000
  0
ARC
  8
0
  10
1.521621
  20
1.612085
  30
0.000000
  40
0.250000
  50
0.000000
  51
90.000000
  0
ARC
  8
0
  10
1.521621
  20
1.612085
  30
0.000000
  40
0.250000
  50
90.000000
  51
180.000000
  0
ARC
  8
0
  10
1.521621
  20
1.612085
  30
0.000000
  40
0.250000
  50
180.000000
  51
-90.000000
  0
ARC
  8
0
  10
1.521621
  20
1.612085
  30
0.000000
  40
0.250000
  50
-90.000000
  51
0.000000
  0
ARC
  8
0
  10
1.521621
  20
1.612085
  30
0.000000
  40
0.093750
  50
-90.000000
  51
0.000000
  0
ARC
  8
0
  10
1.521621
  20
1.612085
  30
0.000000
  40
0.093750
  50
180.000000
  51
-90.000000
  0
ARC
  8
0
  10
1.521621
  20
1.612085
  30
0.000000
  40
0.093750
  50
90.000000
  51
180.000000
  0
ARC
  8
0
  10
1.521621
  20
1.612085
  30
0.000000
  40
0.093750
  50
0.000000
  51
90.000000
  0
ARC
  8
0
  10
2.071628
  20
1.612085
  30
0.000000
  40
0.250000
  50
0.000000
  51
90.000000
  0
ARC
  8
0
  10
2.071628
  20
1.612085
  30
0.000000
  40
0.250000
  50
90.000000
  51
180.000000
  0
ARC
  8
0
  10
2.071628
  20
1.612085
  30
0.000000
  40
0.250000
  50
180.000000
  51
-90.000000
  0
ARC
  8
0
  10
2.071628
  20
1.612085
  30
0.000000
  40
0.250000
  50
-90.000000
  51
0.000000
  0
ARC
  8
0
  10
2.071628
  20
1.612085
  30
0.000000
  40
0.093750
  50
-90.000000
  51
0.000000
  0
ARC
  8
0
  10
2.071628
  20
1.612085
  30
0.000000
  40
0.093750
  50
180.000000
  51
-90.000000
  0
ARC
  8
0
  10
2.071628
  20
1.612085
  30
0.000000
  40
0.093750
  50
90.000000
  51
180.000000
  0
ARC
  8
0
  10
2.071628
  20
1.612085
  30
0.000000
  40
0.093750
  50
0.000000
  51
90.000000
  0
ARC
  8
0
  10
2.621635
  20
1.612085
  30
0.000000
  40
0.250000
  50
0.000000
  51
90.000000
  0
ARC
  8
0
  10
2.621635
  20
1.612085
  30
0.000000
  40
0.250000
  50
90.000000
  51
-180.000000
  0
ARC
  8
0
  10
2.621635
  20
1.612085
  30
0.000000
  40
0.250000
  50
180.000000
  51
-90.000000
  0
ARC
  8
0
  10
2.621635
  20
1.612085
  30
0.000000
  40
0.250000
  50
-90.000000
  51
0.000000
  0
ARC
  8
0
  10
2.621635
  20
1.612085
  30
0.000000
  40
0.093750
  50
-90.000000
  51
0.000000
  0
ARC
  8
0
  10
2.621635
  20
1.612085
  30
0.000000
  40
0.093750
  50
180.000000
  51
-90.000000
  0
ARC
  8
0
  10
2.621635
  20
1.612085
  30
0.000000
  40
0.093750
  50
90.000000
  51
180.000000
  0
ARC
  8
0
  10
2.621635
  20
1.612085
  30
0.000000
  40
0.093750
  50
0.000000
  51
90.000000
  0
ARC
  8
0
  10
-1.778419
  20
1.041898
  30
0.000000
  40
0.250000
  50
0.000000
  51
90.000000
  0
ARC
  8
0
  10
-1.778419
  20
1.041898
  30
0.000000
  40
0.250000
  50
90.000000
  51
180.000000
  0
ARC
  8
0
  10
-1.778419
  20
1.041898
  30
0.000000
  40
0.250000
  50
-180.000000
  51
-90.000000
  0
ARC
  8
0
  10
-1.778419
  20
1.041898
  30
0.000000
  40
0.250000
  50
-90.000000
  51
0.000000
  0
ARC
  8
0
  10
-1.778419
  20
1.041898
  30
0.000000
  40
0.093750
  50
-90.000000
  51
0.000000
  0
ARC
  8
0
  10
-1.778419
  20
1.041898
  30
0.000000
  40
0.093750
  50
180.000000
  51
-90.000000
  0
ARC
  8
0
  10
-1.778419
  20
1.041898
  30
0.000000
  40
0.093750
  50
90.000000
  51
180.000000
  0
ARC
  8
0
  10
-1.778419
  20
1.041898
  30
0.000000
  40
0.093750
  50
0.000000
  51
90.000000
  0
ARC
  8
0
  10
-1.228412
  20
1.041898
  30
0.000000
  40
0.250000
  50
-0.000000
  51
90.000000
  0
ARC
  8
0
  10
-1.228412
  20
1.041898
  30
0.000000
  40
0.250000
  50
90.000000
  51
180.000000
  0
ARC
  8
0
  10
-1.228412
  20
1.041898
  30
0.000000
  40
0.250000
  50
180.000000
  51
-90.000000
  0
ARC
  8
0
  10
-1.228412
  20
1.041898
  30
0.000000
  40
0.250000
  50
-90.000000
  51
0.000000
  0
ARC
  8
0
  10
-1.228412
  20
1.041898
  30
0.000000
  40
0.093750
  50
-90.000000
  51
0.000000
  0
ARC
  8
0
  10
-1.228412
  20
1.041898
  30
0.000000
  40
0.093750
  50
180.000000
  51
-90.000000
  0
ARC
  8
0
  10
-1.228412
  20
1.041898
  30
0.000000
  40
0.093750
  50
90.000000
  51
180.000000
  0
ARC
  8
0
  10
-1.228412
  20
1.041898
  30
0.000000
  40
0.093750
  50
0.000000
  51
90.000000
  0
ARC
  8
0
  10
3.171641
  20
1.041898
  30
0.000000
  40
0.250000
  50
0.000000
  51
90.000000
  0
ARC
  8
0
  10
3.171641
  20
1.041898
  30
0.000000
  40
0.250000
  50
90.000000
  51
180.000000
  0
ARC
  8
0
  10
3.171641
  20
1.041898
  30
0.000000
  40
0.250000
  50
180.000000
  51
-90.000000
  0
ARC
  8
0
  10
3.171641
  20
1.041898
  30
0.000000
  40
0.250000
  50
-90.000000
  51
0.000000
  0
ARC
  8
0
  10
3.171641
  20
1.041898
  30
0.000000
  40
0.093750
  50
-90.000000
  51
0.000000
  0
ARC
  8
0
  10
3.171641
  20
1.041898
  30
0.000000
  40
0.093750
  50
180.000000
  51
-90.000000
  0
ARC
  8
0
  10
3.171641
  20
1.041898
  30
0.000000
  40
0.093750
  50
90.000000
  51
180.000000
  0
ARC
  8
0
  10
3.171641
  20
1.041898
  30
0.000000
  40
0.093750
  50
0.000000
  51
90.000000
  0
ARC
  8
0
  10
-0.678405
  20
1.041898
  30
0.000000
  40
0.250000
  50
0.000000
  51
90.000000
  0
ARC
  8
0
  10
-0.678405
  20
1.041898
  30
0.000000
  40
0.250000
  50
90.000000
  51
180.000000
  0
ARC
  8
0
  10
-0.678405
  20
1.041898
  30
0.000000
  40
0.250000
  50
180.000000
  51
-90.000000
  0
ARC
  8
0
  10
-0.678405
  20
1.041898
  30
0.000000
  40
0.250000
  50
-90.000000
  51
0.000000
  0
ARC
  8
0
  10
-0.678405
  20
1.041898
  30
0.000000
  40
0.093750
  50
-90.000000
  51
0.000000
  0
ARC
  8
0
  10
-0.678405
  20
1.041898
  30
0.000000
  40
0.093750
  50
180.000000
  51
-90.000000
  0
ARC
  8
0
  10
-0.678405
  20
1.041898
  30
0.000000
  40
0.093750
  50
90.000000
  51
180.000000
  0
ARC
  8
0
  10
-0.678405
  20
1.041898
  30
0.000000
  40
0.093750
  50
0.000000
  51
90.000000
  0
ARC
  8
0
  10
-0.128399
  20
1.041898
  30
0.000000
  40
0.250000
  50
0.000000
  51
90.000000
  0
ARC
  8
0
  10
-0.128399
  20
1.041898
  30
0.000000
  40
0.250000
  50
90.000000
  51
180.000000
  0
ARC
  8
0
  10
-0.128399
  20
1.041898
  30
0.000000
  40
0.250000
  50
180.000000
  51
-90.000000
  0
ARC
  8
0
  10
-0.128399
  20
1.041898
  30
0.000000
  40
0.250000
  50
-90.000000
  51
0.000000
  0
ARC
  8
0
  10
-0.128399
  20
1.041898
  30
0.000000
  40
0.093750
  50
-90.000000
  51
0.000000
  0
ARC
  8
0
  10
-0.128399
  20
1.041898
  30
0.000000
  40
0.093750
  50
180.000000
  51
-90.000000
  0
ARC
  8
0
  10
-0.128399
  20
1.041898
  30
0.000000
  40
0.093750
  50
90.000000
  51
180.000000
  0
ARC
  8
0
  10
-0.128399
  20
1.041898
  30
0.000000
  40
0.093750
  50
0.000000
  51
90.000000
  0
ARC
  8
0
  10
0.421608
  20
1.041898
  30
0.000000
  40
0.250000
  50
0.000000
  51
90.000000
  0
ARC
  8
0
  10
0.421608
  20
1.041898
  30
0.000000
  40
0.250000
  50
90.000000
  51
180.000000
  0
ARC
  8
0
  10
0.421608
  20
1.041898
  30
0.000000
  40
0.250000
  50
180.000000
  51
-90.000000
  0
ARC
  8
0
  10
0.421608
  20
1.041898
  30
0.000000
  40
0.250000
  50
-90.000000
  51
0.000000
  0
ARC
  8
0
  10
0.421608
  20
1.041898
  30
0.000000
  40
0.093750
  50
-90.000000
  51
0.000000
  0
ARC
  8
0
  10
0.421608
  20
1.041898
  30
0.000000
  40
0.093750
  50
180.000000
  51
-90.000000
  0
ARC
  8
0
  10
0.421608
  20
1.041898
  30
0.000000
  40
0.093750
  50
90.000000
  51
180.000000
  0
ARC
  8
0
  10
0.421608
  20
1.041898
  30
0.000000
  40
0.093750
  50
0.000000
  51
90.000000
  0
ARC
  8
0
  10
0.971615
  20
1.041898
  30
0.000000
  40
0.250000
  50
0.000000
  51
90.000000
  0
ARC
  8
0
  10
0.971615
  20
1.041898
  30
0.000000
  40
0.250000
  50
90.000000
  51
180.000000
  0
ARC
  8
0
  10
0.971615
  20
1.041898
  30
0.000000
  40
0.250000
  50
180.000000
  51
-90.000000
  0
ARC
  8
0
  10
0.971615
  20
1.041898
  30
0.000000
  40
0.250000
  50
-90.000000
  51
0.000000
  0
ARC
  8
0
  10
0.971615
  20
1.041898
  30
0.000000
  40
0.093750
  50
-90.000000
  51
0.000000
  0
ARC
  8
0
  10
0.971615
  20
1.041898
  30
0.000000
  40
0.093750
  50
180.000000
  51
-90.000000
  0
ARC
  8
0
  10
0.971615
  20
1.041898
  30
0.000000
  40
0.093750
  50
90.000000
  51
180.000000
  0
ARC
  8
0
  10
0.971615
  20
1.041898
  30
0.000000
  40
0.093750
  50
0.000000
  51
90.000000
  0
ARC
  8
0
  10
1.521621
  20
1.041898
  30
0.000000
  40
0.250000
  50
0.000000
  51
90.000000
  0
ARC
  8
0
  10
1.521621
  20
1.041898
  30
0.000000
  40
0.250000
  50
90.000000
  51
180.000000
  0
ARC
  8
0
  10
1.521621
  20
1.041898
  30
0.000000
  40
0.250000
  50
180.000000
  51
-90.000000
  0
ARC
  8
0
  10
1.521621
  20
1.041898
  30
0.000000
  40
0.250000
  50
-90.000000
  51
0.000000
  0
ARC
  8
0
  10
1.521621
  20
1.041898
  30
0.000000
  40
0.093750
  50
-90.000000
  51
0.000000
  0
ARC
  8
0
  10
1.521621
  20
1.041898
  30
0.000000
  40
0.093750
  50
180.000000
  51
-90.000000
  0
ARC
  8
0
  10
1.521621
  20
1.041898
  30
0.000000
  40
0.093750
  50
90.000000
  51
180.000000
  0
ARC
  8
0
  10
1.521621
  20
1.041898
  30
0.000000
  40
0.093750
  50
0.000000
  51
90.000000
  0
ARC
  8
0
  10
2.071628
  20
1.041898
  30
0.000000
  40
0.250000
  50
0.000000
  51
90.000000
  0
ARC
  8
0
  10
2.071628
  20
1.041898
  30
0.000000
  40
0.250000
  50
90.000000
  51
180.000000
  0
ARC
  8
0
  10
2.071628
  20
1.041898
  30
0.000000
  40
0.250000
  50
180.000000
  51
-90.000000
  0
ARC
  8
0
  10
2.071628
  20
1.041898
  30
0.000000
  40
0.250000
  50
-90.000000
  51
0.000000
  0
ARC
  8
0
  10
2.071628
  20
1.041898
  30
0.000000
  40
0.093750
  50
-90.000000
  51
0.000000
  0
ARC
  8
0
  10
2.071628
  20
1.041898
  30
0.000000
  40
0.093750
  50
180.000000
  51
-90.000000
  0
ARC
  8
0
  10
2.071628
  20
1.041898
  30
0.000000
  40
0.093750
  50
90.000000
  51
180.000000
  0
ARC
  8
0
  10
2.071628
  20
1.041898
  30
0.000000
  40
0.093750
  50
0.000000
  51
90.000000
  0
ARC
  8
0
  10
2.621635
  20
1.041898
  30
0.000000
  40
0.250000
  50
0.000000
  51
90.000000
  0
ARC
  8
0
  10
2.621635
  20
1.041898
  30
0.000000
  40
0.250000
  50
90.000000
  51
-180.000000
  0
ARC
  8
0
  10
2.621635
  20
1.041898
  30
0.000000
  40
0.250000
  50
180.000000
  51
-90.000000
  0
ARC
  8
0
  10
2.621635
  20
1.041898
  30
0.000000
  40
0.250000
  50
-90.000000
  51
0.000000
  0
ARC
  8
0
  10
2.621635
  20
1.041898
  30
0.000000
  40
0.093750
  50
-90.000000
  51
0.000000
  0
ARC
  8
0
  10
2.621635
  20
1.041898
  30
0.000000
  40
0.093750
  50
180.000000
  51
-90.000000
  0
ARC
  8
0
  10
2.621635
  20
1.041898
  30
0.000000
  40
0.093750
  50
90.000000
  51
180.000000
  0
ARC
  8
0
  10
2.621635
  20
1.041898
  30
0.000000
  40
0.093750
  50
0.000000
  51
90.000000
  0
ARC
  8
0
  10
-1.778419
  20
0.471710
  30
0.000000
  40
0.250000
  50
0.000000
  51
90.000000
  0
ARC
  8
0
  10
-1.778419
  20
0.471710
  30
0.000000
  40
0.250000
  50
90.000000
  51
180.000000
  0
ARC
  8
0
  10
-1.778419
  20
0.471710
  30
0.000000
  40
0.250000
  50
-180.000000
  51
-90.000000
  0
ARC
  8
0
  10
-1.778419
  20
0.471710
  30
0.000000
  40
0.250000
  50
-90.000000
  51
0.000000
  0
ARC
  8
0
  10
-1.778419
  20
0.471710
  30
0.000000
  40
0.093750
  50
-90.000000
  51
0.000000
  0
ARC
  8
0
  10
-1.778419
  20
0.471710
  30
0.000000
  40
0.093750
  50
180.000000
  51
-90.000000
  0
ARC
  8
0
  10
-1.778419
  20
0.471710
  30
0.000000
  40
0.093750
  50
90.000000
  51
180.000000
  0
ARC
  8
0
  10
-1.778419
  20
0.471710
  30
0.000000
  40
0.093750
  50
0.000000
  51
90.000000
  0
ARC
  8
0
  10
-1.228412
  20
0.471710
  30
0.000000
  40
0.250000
  50
-0.000000
  51
90.000000
  0
ARC
  8
0
  10
-1.228412
  20
0.471710
  30
0.000000
  40
0.250000
  50
90.000000
  51
180.000000
  0
ARC
  8
0
  10
-1.228412
  20
0.471710
  30
0.000000
  40
0.250000
  50
180.000000
  51
-90.000000
  0
ARC
  8
0
  10
-1.228412
  20
0.471710
  30
0.000000
  40
0.250000
  50
-90.000000
  51
0.000000
  0
ARC
  8
0
  10
-1.228412
  20
0.471710
  30
0.000000
  40
0.093750
  50
-90.000000
  51
0.000000
  0
ARC
  8
0
  10
-1.228412
  20
0.471710
  30
0.000000
  40
0.093750
  50
180.000000
  51
-90.000000
  0
ARC
  8
0
  10
-1.228412
  20
0.471710
  30
0.000000
  40
0.093750
  50
90.000000
  51
180.000000
  0
ARC
  8
0
  10
-1.228412
  20
0.471710
  30
0.000000
  40
0.093750
  50
0.000000
  51
90.000000
  0
ARC
  8
0
  10
3.171641
  20
0.471710
  30
0.000000
  40
0.250000
  50
0.000000
  51
90.000000
  0
ARC
  8
0
  10
3.171641
  20
0.471710
  30
0.000000
  40
0.250000
  50
90.000000
  51
180.000000
  0
ARC
  8
0
  10
3.171641
  20
0.471710
  30
0.000000
  40
0.250000
  50
180.000000
  51
-90.000000
  0
ARC
  8
0
  10
3.171641
  20
0.471710
  30
0.000000
  40
0.250000
  50
-90.000000
  51
0.000000
  0
ARC
  8
0
  10
3.171641
  20
0.471710
  30
0.000000
  40
0.093750
  50
-90.000000
  51
0.000000
  0
ARC
  8
0
  10
3.171641
  20
0.471710
  30
0.000000
  40
0.093750
  50
180.000000
  51
-90.000000
  0
ARC
  8
0
  10
3.171641
  20
0.471710
  30
0.000000
  40
0.093750
  50
90.000000
  51
180.000000
  0
ARC
  8
0
  10
3.171641
  20
0.471710
  30
0.000000
  40
0.093750
  50
0.000000
  51
90.000000
  0
ARC
  8
0
  10
-0.678405
  20
0.471710
  30
0.000000
  40
0.250000
  50
0.000000
  51
90.000000
  0
ARC
  8
0
  10
-0.678405
  20
0.471710
  30
0.000000
  40
0.250000
  50
90.000000
  51
180.000000
  0
ARC
  8
0
  10
-0.678405
  20
0.471710
  30
0.000000
  40
0.250000
  50
180.000000
  51
-90.000000
  0
ARC
  8
0
  10
-0.678405
  20
0.471710
  30
0.000000
  40
0.250000
  50
-90.000000
  51
0.000000
  0
ARC
  8
0
  10
-0.678405
  20
0.471710
  30
0.000000
  40
0.093750
  50
-90.000000
  51
0.000000
  0
ARC
  8
0
  10
-0.678405
  20
0.471710
  30
0.000000
  40
0.093750
  50
180.000000
  51
-90.000000
  0
ARC
  8
0
  10
-0.678405
  20
0.471710
  30
0.000000
  40
0.093750
  50
90.000000
  51
180.000000
  0
ARC
  8
0
  10
-0.678405
  20
0.471710
  30
0.000000
  40
0.093750
  50
0.000000
  51
90.000000
  0
ARC
  8
0
  10
-0.128399
  20
0.471710
  30
0.000000
  40
0.250000
  50
0.000000
  51
90.000000
  0
ARC
  8
0
  10
-0.128399
  20
0.471710
  30
0.000000
  40
0.250000
  50
90.000000
  51
180.000000
  0
ARC
  8
0
  10
-0.128399
  20
0.471710
  30
0.000000
  40
0.250000
  50
180.000000
  51
-90.000000
  0
ARC
  8
0
  10
-0.128399
  20
0.471710
  30
0.000000
  40
0.250000
  50
-90.000000
  51
0.000000
  0
ARC
  8
0
  10
-0.128399
  20
0.471710
  30
0.000000
  40
0.093750
  50
-90.000000
  51
0.000000
  0
ARC
  8
0
  10
-0.128399
  20
0.471710
  30
0.000000
  40
0.093750
  50
180.000000
  51
-90.000000
  0
ARC
  8
0
  10
-0.128399
  20
0.471710
  30
0.000000
  40
0.093750
  50
90.000000
  51
180.000000
  0
ARC
  8
0
  10
-0.128399
  20
0.471710
  30
0.000000
  40
0.093750
  50
0.000000
  51
90.000000
  0
ARC
  8
0
  10
0.421608
  20
0.471710
  30
0.000000
  40
0.250000
  50
0.000000
  51
90.000000
  0
ARC
  8
0
  10
0.421608
  20
0.471710
  30
0.000000
  40
0.250000
  50
90.000000
  51
180.000000
  0
ARC
  8
0
  10
0.421608
  20
0.471710
  30
0.000000
  40
0.250000
  50
180.000000
  51
-90.000000
  0
ARC
  8
0
  10
0.421608
  20
0.471710
  30
0.000000
  40
0.250000
  50
-90.000000
  51
0.000000
  0
ARC
  8
0
  10
0.421608
  20
0.471710
  30
0.000000
  40
0.093750
  50
-90.000000
  51
0.000000
  0
ARC
  8
0
  10
0.421608
  20
0.471710
  30
0.000000
  40
0.093750
  50
180.000000
  51
-90.000000
  0
ARC
  8
0
  10
0.421608
  20
0.471710
  30
0.000000
  40
0.093750
  50
90.000000
  51
180.000000
  0
ARC
  8
0
  10
0.421608
  20
0.471710
  30
0.000000
  40
0.093750
  50
0.000000
  51
90.000000
  0
ARC
  8
0
  10
0.971615
  20
0.471710
  30
0.000000
  40
0.250000
  50
0.000000
  51
90.000000
  0
ARC
  8
0
  10
0.971615
  20
0.471710
  30
0.000000
  40
0.250000
  50
90.000000
  51
180.000000
  0
ARC
  8
0
  10
0.971615
  20
0.471710
  30
0.000000
  40
0.250000
  50
180.000000
  51
-90.000000
  0
ARC
  8
0
  10
0.971615
  20
0.471710
  30
0.000000
  40
0.250000
  50
-90.000000
  51
0.000000
  0
ARC
  8
0
  10
0.971615
  20
0.471710
  30
0.000000
  40
0.093750
  50
-90.000000
  51
0.000000
  0
ARC
  8
0
  10
0.971615
  20
0.471710
  30
0.000000
  40
0.093750
  50
180.000000
  51
-90.000000
  0
ARC
  8
0
  10
0.971615
  20
0.471710
  30
0.000000
  40
0.093750
  50
90.000000
  51
180.000000
  0
ARC
  8
0
  10
0.971615
  20
0.471710
  30
0.000000
  40
0.093750
  50
0.000000
  51
90.000000
  0
ARC
  8
0
  10
1.521621
  20
0.471710
  30
0.000000
  40
0.250000
  50
0.000000
  51
90.000000
  0
ARC
  8
0
  10
1.521621
  20
0.471710
  30
0.000000
  40
0.250000
  50
90.000000
  51
180.000000
  0
ARC
  8
0
  10
1.521621
  20
0.471710
  30
0.000000
  40
0.250000
  50
180.000000
  51
-90.000000
  0
ARC
  8
0
  10
1.521621
  20
0.471710
  30
0.000000
  40
0.250000
  50
-90.000000
  51
0.000000
  0
ARC
  8
0
  10
1.521621
  20
0.471710
  30
0.000000
  40
0.093750
  50
-90.000000
  51
0.000000
  0
ARC
  8
0
  10
1.521621
  20
0.471710
  30
0.000000
  40
0.093750
  50
180.000000
  51
-90.000000
  0
ARC
  8
0
  10
1.521621
  20
0.471710
  30
0.000000
  40
0.093750
  50
90.000000
  51
180.000000
  0
ARC
  8
0
  10
1.521621
  20
0.471710
  30
0.000000
  40
0.093750
  50
0.000000
  51
90.000000
  0
ARC
  8
0
  10
2.071628
  20
0.471710
  30
0.000000
  40
0.250000
  50
0.000000
  51
90.000000
  0
ARC
  8
0
  10
2.071628
  20
0.471710
  30
0.000000
  40
0.250000
  50
90.000000
  51
180.000000
  0
ARC
  8
0
  10
2.071628
  20
0.471710
  30
0.000000
  40
0.250000
  50
180.000000
  51
-90.000000
  0
ARC
  8
0
  10
2.071628
  20
0.471710
  30
0.000000
  40
0.250000
  50
-90.000000
  51
0.000000
  0
ARC
  8
0
  10
2.071628
  20
0.471710
  30
0.000000
  40
0.093750
  50
-90.000000
  51
0.000000
  0
ARC
  8
0
  10
2.071628
  20
0.471710
  30
0.000000
  40
0.093750
  50
180.000000
  51
-90.000000
  0
ARC
  8
0
  10
2.071628
  20
0.471710
  30
0.000000
  40
0.093750
  50
90.000000
  51
180.000000
  0
ARC
  8
0
  10
2.071628
  20
0.471710
  30
0.000000
  40
0.093750
  50
0.000000
  51
90.000000
  0
ARC
  8
0
  10
2.621635
  20
0.471710
  30
0.000000
  40
0.250000
  50
0.000000
  51
90.000000
  0
ARC
  8
0
  10
2.621635
  20
0.471710
  30
0.000000
  40
0.250000
  50
90.000000
  51
-180.000000
  0
ARC
  8
0
  10
2.621635
  20
0.471710
  30
0.000000
  40
0.250000
  50
180.000000
  51
-90.000000
  0
ARC
  8
0
  10
2.621635
  20
0.471710
  30
0.000000
  40
0.250000
  50
-90.000000
  51
0.000000
  0
ARC
  8
0
  10
2.621635
  20
0.471710
  30
0.000000
  40
0.093750
  50
-90.000000
  51
0.000000
  0
ARC
  8
0
  10
2.621635
  20
0.471710
  30
0.000000
  40
0.093750
  50
180.000000
  51
-90.000000
  0
ARC
  8
0
  10
2.621635
  20
0.471710
  30
0.000000
  40
0.093750
  50
90.000000
  51
180.000000
  0
ARC
  8
0
  10
2.621635
  20
0.471710
  30
0.000000
  40
0.093750
  50
0.000000
  51
90.000000
  0
ARC
  8
0
  10
-1.778419
  20
-0.098477
  30
0.000000
  40
0.250000
  50
0.000000
  51
90.000000
  0
ARC
  8
0
  10
-1.778419
  20
-0.098477
  30
0.000000
  40
0.250000
  50
90.000000
  51
180.000000
  0
ARC
  8
0
  10
-1.778419
  20
-0.098477
  30
0.000000
  40
0.250000
  50
-180.000000
  51
-90.000000
  0
ARC
  8
0
  10
-1.778419
  20
-0.098477
  30
0.000000
  40
0.250000
  50
-90.000000
  51
-0.000000
  0
ARC
  8
0
  10
-1.778419
  20
-0.098477
  30
0.000000
  40
0.093750
  50
-90.000000
  51
0.000000
  0
ARC
  8
0
  10
-1.778419
  20
-0.098477
  30
0.000000
  40
0.093750
  50
180.000000
  51
-90.000000
  0
ARC
  8
0
  10
-1.778419
  20
-0.098477
  30
0.000000
  40
0.093750
  50
90.000000
  51
180.000000
  0
ARC
  8
0
  10
-1.778419
  20
-0.098477
  30
0.000000
  40
0.093750
  50
-0.000000
  51
90.000000
  0
ARC
  8
0
  10
-1.228412
  20
-0.098477
  30
0.000000
  40
0.250000
  50
-0.000000
  51
90.000000
  0
ARC
  8
0
  10
-1.228412
  20
-0.098477
  30
0.000000
  40
0.250000
  50
90.000000
  51
-180.000000
  0
ARC
  8
0
  10
-1.228412
  20
-0.098477
  30
0.000000
  40
0.250000
  50
180.000000
  51
-90.000000
  0
ARC
  8
0
  10
-1.228412
  20
-0.098477
  30
0.000000
  40
0.250000
  50
-90.000000
  51
0.000000
  0
ARC
  8
0
  10
-1.228412
  20
-0.098477
  30
0.000000
  40
0.093750
  50
-90.000000
  51
0.000000
  0
ARC
  8
0
  10
-1.228412
  20
-0.098477
  30
0.000000
  40
0.093750
  50
180.000000
  51
-90.000000
  0
ARC
  8
0
  10
-1.228412
  20
-0.098477
  30
0.000000
  40
0.093750
  50
90.000000
  51
180.000000
  0
ARC
  8
0
  10
-1.228412
  20
-0.098477
  30
0.000000
  40
0.093750
  50
0.000000
  51
90.000000
  0
ARC
  8
0
  10
3.171641
  20
-0.098477
  30
0.000000
  40
0.250000
  50
0.000000
  51
90.000000
  0
ARC
  8
0
  10
3.171641
  20
-0.098477
  30
0.000000
  40
0.250000
  50
90.000000
  51
-180.000000
  0
ARC
  8
0
  10
3.171641
  20
-0.098477
  30
0.000000
  40
0.250000
  50
180.000000
  51
-90.000000
  0
ARC
  8
0
  10
3.171641
  20
-0.098477
  30
0.000000
  40
0.250000
  50
-90.000000
  51
-0.000000
  0
ARC
  8
0
  10
3.171641
  20
-0.098477
  30
0.000000
  40
0.093750
  50
-90.000000
  51
0.000000
  0
ARC
  8
0
  10
3.171641
  20
-0.098477
  30
0.000000
  40
0.093750
  50
180.000000
  51
-90.000000
  0
ARC
  8
0
  10
3.171641
  20
-0.098477
  30
0.000000
  40
0.093750
  50
90.000000
  51
180.000000
  0
ARC
  8
0
  10
3.171641
  20
-0.098477
  30
0.000000
  40
0.093750
  50
0.000000
  51
90.000000
  0
ARC
  8
0
  10
-0.678405
  20
-0.098477
  30
0.000000
  40
0.250000
  50
0.000000
  51
90.000000
  0
ARC
  8
0
  10
-0.678405
  20
-0.098477
  30
0.000000
  40
0.250000
  50
90.000000
  51
-180.000000
  0
ARC
  8
0
  10
-0.678405
  20
-0.098477
  30
0.000000
  40
0.250000
  50
180.000000
  51
-90.000000
  0
ARC
  8
0
  10
-0.678405
  20
-0.098477
  30
0.000000
  40
0.250000
  50
-90.000000
  51
-0.000000
  0
ARC
  8
0
  10
-0.678405
  20
-0.098477
  30
0.000000
  40
0.093750
  50
-90.000000
  51
0.000000
  0
ARC
  8
0
  10
-0.678405
  20
-0.098477
  30
0.000000
  40
0.093750
  50
180.000000
  51
-90.000000
  0
ARC
  8
0
  10
-0.678405
  20
-0.098477
  30
0.000000
  40
0.093750
  50
90.000000
  51
180.000000
  0
ARC
  8
0
  10
-0.678405
  20
-0.098477
  30
0.000000
  40
0.093750
  50
0.000000
  51
90.000000
  0
ARC
  8
0
  10
-0.128399
  20
-0.098477
  30
0.000000
  40
0.250000
  50
0.000000
  51
90.000000
  0
ARC
  8
0
  10
-0.128399
  20
-0.098477
  30
0.000000
  40
0.250000
  50
90.000000
  51
-180.000000
  0
ARC
  8
0
  10
-0.128399
  20
-0.098477
  30
0.000000
  40
0.250000
  50
180.000000
  51
-90.000000
  0
ARC
  8
0
  10
-0.128399
  20
-0.098477
  30
0.000000
  40
0.250000
  50
-90.000000
  51
-0.000000
  0
ARC
  8
0
  10
-0.128399
  20
-0.098477
  30
0.000000
  40
0.093750
  50
-90.000000
  51
0.000000
  0
ARC
  8
0
  10
-0.128399
  20
-0.098477
  30
0.000000
  40
0.093750
  50
180.000000
  51
-90.000000
  0
ARC
  8
0
  10
-0.128399
  20
-0.098477
  30
0.000000
  40
0.093750
  50
90.000000
  51
180.000000
  0
ARC
  8
0
  10
-0.128399
  20
-0.098477
  30
0.000000
  40
0.093750
  50
0.000000
  51
90.000000
  0
ARC
  8
0
  10
0.421608
  20
-0.098477
  30
0.000000
  40
0.250000
  50
0.000000
  51
90.000000
  0
ARC
  8
0
  10
0.421608
  20
-0.098477
  30
0.000000
  40
0.250000
  50
90.000000
  51
-180.000000
  0
ARC
  8
0
  10
0.421608
  20
-0.098477
  30
0.000000
  40
0.250000
  50
180.000000
  51
-90.000000
  0
ARC
  8
0
  10
0.421608
  20
-0.098477
  30
0.000000
  40
0.250000
  50
-90.000000
  51
-0.000000
  0
ARC
  8
0
  10
0.421608
  20
-0.098477
  30
0.000000
  40
0.093750
  50
-90.000000
  51
0.000000
  0
ARC
  8
0
  10
0.421608
  20
-0.098477
  30
0.000000
  40
0.093750
  50
180.000000
  51
-90.000000
  0
ARC
  8
0
  10
0.421608
  20
-0.098477
  30
0.000000
  40
0.093750
  50
90.000000
  51
180.000000
  0
ARC
  8
0
  10
0.421608
  20
-0.098477
  30
0.000000
  40
0.093750
  50
0.000000
  51
90.000000
  0
ARC
  8
0
  10
0.971615
  20
-0.098477
  30
0.000000
  40
0.250000
  50
0.000000
  51
90.000000
  0
ARC
  8
0
  10
0.971615
  20
-0.098477
  30
0.000000
  40
0.250000
  50
90.000000
  51
-180.000000
  0
ARC
  8
0
  10
0.971615
  20
-0.098477
  30
0.000000
  40
0.250000
  50
180.000000
  51
-90.000000
  0
ARC
  8
0
  10
0.971615
  20
-0.098477
  30
0.000000
  40
0.250000
  50
-90.000000
  51
-0.000000
  0
ARC
  8
0
  10
0.971615
  20
-0.098477
  30
0.000000
  40
0.093750
  50
-90.000000
  51
0.000000
  0
ARC
  8
0
  10
0.971615
  20
-0.098477
  30
0.000000
  40
0.093750
  50
180.000000
  51
-90.000000
  0
ARC
  8
0
  10
0.971615
  20
-0.098477
  30
0.000000
  40
0.093750
  50
90.000000
  51
180.000000
  0
ARC
  8
0
  10
0.971615
  20
-0.098477
  30
0.000000
  40
0.093750
  50
0.000000
  51
90.000000
  0
ARC
  8
0
  10
1.521621
  20
-0.098477
  30
0.000000
  40
0.250000
  50
0.000000
  51
90.000000
  0
ARC
  8
0
  10
1.521621
  20
-0.098477
  30
0.000000
  40
0.250000
  50
90.000000
  51
-180.000000
  0
ARC
  8
0
  10
1.521621
  20
-0.098477
  30
0.000000
  40
0.250000
  50
180.000000
  51
-90.000000
  0
ARC
  8
0
  10
1.521621
  20
-0.098477
  30
0.000000
  40
0.250000
  50
-90.000000
  51
-0.000000
  0
ARC
  8
0
  10
1.521621
  20
-0.098477
  30
0.000000
  40
0.093750
  50
-90.000000
  51
0.000000
  0
ARC
  8
0
  10
1.521621
  20
-0.098477
  30
0.000000
  40
0.093750
  50
180.000000
  51
-90.000000
  0
ARC
  8
0
  10
1.521621
  20
-0.098477
  30
0.000000
  40
0.093750
  50
90.000000
  51
180.000000
  0
ARC
  8
0
  10
1.521621
  20
-0.098477
  30
0.000000
  40
0.093750
  50
0.000000
  51
90.000000
  0
ARC
  8
0
  10
2.071628
  20
-0.098477
  30
0.000000
  40
0.250000
  50
0.000000
  51
90.000000
  0
ARC
  8
0
  10
2.071628
  20
-0.098477
  30
0.000000
  40
0.250000
  50
90.000000
  51
-180.000000
  0
ARC
  8
0
  10
2.071628
  20
-0.098477
  30
0.000000
  40
0.250000
  50
180.000000
  51
-90.000000
  0
ARC
  8
0
  10
2.071628
  20
-0.098477
  30
0.000000
  40
0.250000
  50
-90.000000
  51
-0.000000
  0
ARC
  8
0
  10
2.071628
  20
-0.098477
  30
0.000000
  40
0.093750
  50
-90.000000
  51
0.000000
  0
ARC
  8
0
  10
2.071628
  20
-0.098477
  30
0.000000
  40
0.093750
  50
180.000000
  51
-90.000000
  0
ARC
  8
0
  10
2.071628
  20
-0.098477
  30
0.000000
  40
0.093750
  50
90.000000
  51
180.000000
  0
ARC
  8
0
  10
2.071628
  20
-0.098477
  30
0.000000
  40
0.093750
  50
0.000000
  51
90.000000
  0
ARC
  8
0
  10
2.621635
  20
-0.098477
  30
0.000000
  40
0.250000
  50
0.000000
  51
90.000000
  0
ARC
  8
0
  10
2.621635
  20
-0.098477
  30
0.000000
  40
0.250000
  50
90.000000
  51
-180.000000
  0
ARC
  8
0
  10
2.621635
  20
-0.098477
  30
0.000000
  40
0.250000
  50
180.000000
  51
-90.000000
  0
ARC
  8
0
  10
2.621635
  20
-0.098477
  30
0.000000
  40
0.250000
  50
-90.000000
  51
-0.000000
  0
ARC
  8
0
  10
2.621635
  20
-0.098477
  30
0.000000
  40
0.093750
  50
-90.000000
  51
0.000000
  0
ARC
  8
0
  10
2.621635
  20
-0.098477
  30
0.000000
  40
0.093750
  50
180.000000
  51
-90.000000
  0
ARC
  8
0
  10
2.621635
  20
-0.098477
  30
0.000000
  40
0.093750
  50
90.000000
  51
180.000000
  0
ARC
  8
0
  10
2.621635
  20
-0.098477
  30
0.000000
  40
0.093750
  50
0.000000
  51
90.000000
  0
ARC
  8
0
  10
-1.778419
  20
-0.668665
  30
0.000000
  40
0.250000
  50
0.000000
  51
90.000000
  0
ARC
  8
0
  10
-1.778419
  20
-0.668665
  30
0.000000
  40
0.250000
  50
90.000000
  51
180.000000
  0
ARC
  8
0
  10
-1.778419
  20
-0.668665
  30
0.000000
  40
0.250000
  50
-180.000000
  51
-90.000000
  0
ARC
  8
0
  10
-1.778419
  20
-0.668665
  30
0.000000
  40
0.250000
  50
-90.000000
  51
0.000000
  0
ARC
  8
0
  10
-1.778419
  20
-0.668665
  30
0.000000
  40
0.093750
  50
-90.000000
  51
0.000000
  0
ARC
  8
0
  10
-1.778419
  20
-0.668665
  30
0.000000
  40
0.093750
  50
180.000000
  51
-90.000000
  0
ARC
  8
0
  10
-1.778419
  20
-0.668665
  30
0.000000
  40
0.093750
  50
90.000000
  51
180.000000
  0
ARC
  8
0
  10
-1.778419
  20
-0.668665
  30
0.000000
  40
0.093750
  50
0.000000
  51
90.000000
  0
ARC
  8
0
  10
-1.228412
  20
-0.668665
  30
0.000000
  40
0.250000
  50
-0.000000
  51
90.000000
  0
ARC
  8
0
  10
-1.228412
  20
-0.668665
  30
0.000000
  40
0.250000
  50
90.000000
  51
180.000000
  0
ARC
  8
0
  10
-1.228412
  20
-0.668665
  30
0.000000
  40
0.250000
  50
180.000000
  51
-90.000000
  0
ARC
  8
0
  10
-1.228412
  20
-0.668665
  30
0.000000
  40
0.250000
  50
-90.000000
  51
0.000000
  0
ARC
  8
0
  10
-1.228412
  20
-0.668665
  30
0.000000
  40
0.093750
  50
-90.000000
  51
0.000000
  0
ARC
  8
0
  10
-1.228412
  20
-0.668665
  30
0.000000
  40
0.093750
  50
180.000000
  51
-90.000000
  0
ARC
  8
0
  10
-1.228412
  20
-0.668665
  30
0.000000
  40
0.093750
  50
90.000000
  51
180.000000
  0
ARC
  8
0
  10
-1.228412
  20
-0.668665
  30
0.000000
  40
0.093750
  50
0.000000
  51
90.000000
  0
ARC
  8
0
  10
3.171641
  20
-0.668665
  30
0.000000
  40
0.250000
  50
0.000000
  51
90.000000
  0
ARC
  8
0
  10
3.171641
  20
-0.668665
  30
0.000000
  40
0.250000
  50
90.000000
  51
180.000000
  0
ARC
  8
0
  10
3.171641
  20
-0.668665
  30
0.000000
  40
0.250000
  50
180.000000
  51
-90.000000
  0
ARC
  8
0
  10
3.171641
  20
-0.668665
  30
0.000000
  40
0.250000
  50
-90.000000
  51
0.000000
  0
ARC
  8
0
  10
3.171641
  20
-0.668665
  30
0.000000
  40
0.093750
  50
-90.000000
  51
0.000000
  0
ARC
  8
0
  10
3.171641
  20
-0.668665
  30
0.000000
  40
0.093750
  50
180.000000
  51
-90.000000
  0
ARC
  8
0
  10
3.171641
  20
-0.668665
  30
0.000000
  40
0.093750
  50
90.000000
  51
180.000000
  0
ARC
  8
0
  10
3.171641
  20
-0.668665
  30
0.000000
  40
0.093750
  50
0.000000
  51
90.000000
  0
ARC
  8
0
  10
-0.678405
  20
-0.668665
  30
0.000000
  40
0.250000
  50
0.000000
  51
90.000000
  0
ARC
  8
0
  10
-0.678405
  20
-0.668665
  30
0.000000
  40
0.250000
  50
90.000000
  51
180.000000
  0
ARC
  8
0
  10
-0.678405
  20
-0.668665
  30
0.000000
  40
0.250000
  50
180.000000
  51
-90.000000
  0
ARC
  8
0
  10
-0.678405
  20
-0.668665
  30
0.000000
  40
0.250000
  50
-90.000000
  51
0.000000
  0
ARC
  8
0
  10
-0.678405
  20
-0.668665
  30
0.000000
  40
0.093750
  50
-90.000000
  51
0.000000
  0
ARC
  8
0
  10
-0.678405
  20
-0.668665
  30
0.000000
  40
0.093750
  50
180.000000
  51
-90.000000
  0
ARC
  8
0
  10
-0.678405
  20
-0.668665
  30
0.000000
  40
0.093750
  50
90.000000
  51
180.000000
  0
ARC
  8
0
  10
-0.678405
  20
-0.668665
  30
0.000000
  40
0.093750
  50
0.000000
  51
90.000000
  0
ARC
  8
0
  10
-0.128399
  20
-0.668665
  30
0.000000
  40
0.250000
  50
0.000000
  51
90.000000
  0
ARC
  8
0
  10
-0.128399
  20
-0.668665
  30
0.000000
  40
0.250000
  50
90.000000
  51
180.000000
  0
ARC
  8
0
  10
-0.128399
  20
-0.668665
  30
0.000000
  40
0.250000
  50
180.000000
  51
-90.000000
  0
ARC
  8
0
  10
-0.128399
  20
-0.668665
  30
0.000000
  40
0.250000
  50
-90.000000
  51
0.000000
  0
ARC
  8
0
  10
-0.128399
  20
-0.668665
  30
0.000000
  40
0.093750
  50
-90.000000
  51
0.000000
  0
ARC
  8
0
  10
-0.128399
  20
-0.668665
  30
0.000000
  40
0.093750
  50
180.000000
  51
-90.000000
  0
ARC
  8
0
  10
-0.128399
  20
-0.668665
  30
0.000000
  40
0.093750
  50
90.000000
  51
180.000000
  0
ARC
  8
0
  10
-0.128399
  20
-0.668665
  30
0.000000
  40
0.093750
  50
0.000000
  51
90.000000
  0
ARC
  8
0
  10
0.421608
  20
-0.668665
  30
0.000000
  40
0.250000
  50
0.000000
  51
90.000000
  0
ARC
  8
0
  10
0.421608
  20
-0.668665
  30
0.000000
  40
0.250000
  50
90.000000
  51
180.000000
  0
ARC
  8
0
  10
0.421608
  20
-0.668665
  30
0.000000
  40
0.250000
  50
180.000000
  51
-90.000000
  0
ARC
  8
0
  10
0.421608
  20
-0.668665
  30
0.000000
  40
0.250000
  50
-90.000000
  51
0.000000
  0
ARC
  8
0
  10
0.421608
  20
-0.668665
  30
0.000000
  40
0.093750
  50
-90.000000
  51
0.000000
  0
ARC
  8
0
  10
0.421608
  20
-0.668665
  30
0.000000
  40
0.093750
  50
180.000000
  51
-90.000000
  0
ARC
  8
0
  10
0.421608
  20
-0.668665
  30
0.000000
  40
0.093750
  50
90.000000
  51
180.000000
  0
ARC
  8
0
  10
0.421608
  20
-0.668665
  30
0.000000
  40
0.093750
  50
0.000000
  51
90.000000
  0
ARC
  8
0
  10
0.971615
  20
-0.668665
  30
0.000000
  40
0.250000
  50
0.000000
  51
90.000000
  0
ARC
  8
0
  10
0.971615
  20
-0.668665
  30
0.000000
  40
0.250000
  50
90.000000
  51
180.000000
  0
ARC
  8
0
  10
0.971615
  20
-0.668665
  30
0.000000
  40
0.250000
  50
180.000000
  51
-90.000000
  0
ARC
  8
0
  10
0.971615
  20
-0.668665
  30
0.000000
  40
0.250000
  50
-90.000000
  51
0.000000
  0
ARC
  8
0
  10
0.971615
  20
-0.668665
  30
0.000000
  40
0.093750
  50
-90.000000
  51
0.000000
  0
ARC
  8
0
  10
0.971615
  20
-0.668665
  30
0.000000
  40
0.093750
  50
180.000000
  51
-90.000000
  0
ARC
  8
0
  10
0.971615
  20
-0.668665
  30
0.000000
  40
0.093750
  50
90.000000
  51
180.000000
  0
ARC
  8
0
  10
0.971615
  20
-0.668665
  30
0.000000
  40
0.093750
  50
0.000000
  51
90.000000
  0
ARC
  8
0
  10
1.521621
  20
-0.668665
  30
0.000000
  40
0.250000
  50
0.000000
  51
90.000000
  0
ARC
  8
0
  10
1.521621
  20
-0.668665
  30
0.000000
  40
0.250000
  50
90.000000
  51
180.000000
  0
ARC
  8
0
  10
1.521621
  20
-0.668665
  30
0.000000
  40
0.250000
  50
180.000000
  51
-90.000000
  0
ARC
  8
0
  10
1.521621
  20
-0.668665
  30
0.000000
  40
0.250000
  50
-90.000000
  51
0.000000
  0
ARC
  8
0
  10
1.521621
  20
-0.668665
  30
0.000000
  40
0.093750
  50
-90.000000
  51
0.000000
  0
ARC
  8
0
  10
1.521621
  20
-0.668665
  30
0.000000
  40
0.093750
  50
180.000000
  51
-90.000000
  0
ARC
  8
0
  10
1.521621
  20
-0.668665
  30
0.000000
  40
0.093750
  50
90.000000
  51
180.000000
  0
ARC
  8
0
  10
1.521621
  20
-0.668665
  30
0.000000
  40
0.093750
  50
0.000000
  51
90.000000
  0
ARC
  8
0
  10
2.071628
  20
-0.668665
  30
0.000000
  40
0.250000
  50
0.000000
  51
90.000000
  0
ARC
  8
0
  10
2.071628
  20
-0.668665
  30
0.000000
  40
0.250000
  50
90.000000
  51
180.000000
  0
ARC
  8
0
  10
2.071628
  20
-0.668665
  30
0.000000
  40
0.250000
  50
180.000000
  51
-90.000000
  0
ARC
  8
0
  10
2.071628
  20
-0.668665
  30
0.000000
  40
0.250000
  50
-90.000000
  51
0.000000
  0
ARC
  8
0
  10
2.071628
  20
-0.668665
  30
0.000000
  40
0.093750
  50
-90.000000
  51
0.000000
  0
ARC
  8
0
  10
2.071628
  20
-0.668665
  30
0.000000
  40
0.093750
  50
180.000000
  51
-90.000000
  0
ARC
  8
0
  10
2.071628
  20
-0.668665
  30
0.000000
  40
0.093750
  50
90.000000
  51
180.000000
  0
ARC
  8
0
  10
2.071628
  20
-0.668665
  30
0.000000
  40
0.093750
  50
0.000000
  51
90.000000
  0
ARC
  8
0
  10
2.621635
  20
-0.668665
  30
0.000000
  40
0.250000
  50
0.000000
  51
90.000000
  0
ARC
  8
0
  10
2.621635
  20
-0.668665
  30
0.000000
  40
0.250000
  50
90.000000
  51
-180.000000
  0
ARC
  8
0
  10
2.621635
  20
-0.668665
  30
0.000000
  40
0.250000
  50
180.000000
  51
-90.000000
  0
ARC
  8
0
  10
2.621635
  20
-0.668665
  30
0.000000
  40
0.250000
  50
-90.000000
  51
0.000000
  0
ARC
  8
0
  10
2.621635
  20
-0.668665
  30
0.000000
  40
0.093750
  50
-90.000000
  51
0.000000
  0
ARC
  8
0
  10
2.621635
  20
-0.668665
  30
0.000000
  40
0.093750
  50
180.000000
  51
-90.000000
  0
ARC
  8
0
  10
2.621635
  20
-0.668665
  30
0.000000
  40
0.093750
  50
90.000000
  51
180.000000
  0
ARC
  8
0
  10
2.621635
  20
-0.668665
  30
0.000000
  40
0.093750
  50
0.000000
  51
90.000000
  0
ARC
  8
0
  10
-1.778419
  20
-1.238852
  30
0.000000
  40
0.250000
  50
0.000000
  51
90.000000
  0
ARC
  8
0
  10
-1.778419
  20
-1.238852
  30
0.000000
  40
0.250000
  50
90.000000
  51
180.000000
  0
ARC
  8
0
  10
-1.778419
  20
-1.238852
  30
0.000000
  40
0.250000
  50
-180.000000
  51
-90.000000
  0
ARC
  8
0
  10
-1.778419
  20
-1.238852
  30
0.000000
  40
0.250000
  50
-90.000000
  51
0.000000
  0
ARC
  8
0
  10
-1.778419
  20
-1.238852
  30
0.000000
  40
0.093750
  50
-90.000000
  51
0.000000
  0
ARC
  8
0
  10
-1.778419
  20
-1.238852
  30
0.000000
  40
0.093750
  50
180.000000
  51
-90.000000
  0
ARC
  8
0
  10
-1.778419
  20
-1.238852
  30
0.000000
  40
0.093750
  50
90.000000
  51
180.000000
  0
ARC
  8
0
  10
-1.778419
  20
-1.238852
  30
0.000000
  40
0.093750
  50
0.000000
  51
90.000000
  0
ARC
  8
0
  10
-1.228412
  20
-1.238852
  30
0.000000
  40
0.250000
  50
-0.000000
  51
90.000000
  0
ARC
  8
0
  10
-1.228412
  20
-1.238852
  30
0.000000
  40
0.250000
  50
90.000000
  51
180.000000
  0
ARC
  8
0
  10
-1.228412
  20
-1.238852
  30
0.000000
  40
0.250000
  50
180.000000
  51
-90.000000
  0
ARC
  8
0
  10
-1.228412
  20
-1.238852
  30
0.000000
  40
0.250000
  50
-90.000000
  51
0.000000
  0
ARC
  8
0
  10
-1.228412
  20
-1.238852
  30
0.000000
  40
0.093750
  50
-90.000000
  51
0.000000
  0
ARC
  8
0
  10
-1.228412
  20
-1.238852
  30
0.000000
  40
0.093750
  50
180.000000
  51
-90.000000
  0
ARC
  8
0
  10
-1.228412
  20
-1.238852
  30
0.000000
  40
0.093750
  50
90.000000
  51
180.000000
  0
ARC
  8
0
  10
-1.228412
  20
-1.238852
  30
0.000000
  40
0.093750
  50
0.000000
  51
90.000000
  0
ARC
  8
0
  10
3.171641
  20
-1.238852
  30
0.000000
  40
0.250000
  50
0.000000
  51
90.000000
  0
ARC
  8
0
  10
3.171641
  20
-1.238852
  30
0.000000
  40
0.250000
  50
90.000000
  51
180.000000
  0
ARC
  8
0
  10
3.171641
  20
-1.238852
  30
0.000000
  40
0.250000
  50
180.000000
  51
-90.000000
  0
ARC
  8
0
  10
3.171641
  20
-1.238852
  30
0.000000
  40
0.250000
  50
-90.000000
  51
0.000000
  0
ARC
  8
0
  10
3.171641
  20
-1.238852
  30
0.000000
  40
0.093750
  50
-90.000000
  51
0.000000
  0
ARC
  8
0
  10
3.171641
  20
-1.238852
  30
0.000000
  40
0.093750
  50
180.000000
  51
-90.000000
  0
ARC
  8
0
  10
3.171641
  20
-1.238852
  30
0.000000
  40
0.093750
  50
90.000000
  51
180.000000
  0
ARC
  8
0
  10
3.171641
  20
-1.238852
  30
0.000000
  40
0.093750
  50
0.000000
  51
90.000000
  0
ARC
  8
0
  10
-0.678405
  20
-1.238852
  30
0.000000
  40
0.250000
  50
0.000000
  51
90.000000
  0
ARC
  8
0
  10
-0.678405
  20
-1.238852
  30
0.000000
  40
0.250000
  50
90.000000
  51
180.000000
  0
ARC
  8
0
  10
-0.678405
  20
-1.238852
  30
0.000000
  40
0.250000
  50
180.000000
  51
-90.000000
  0
ARC
  8
0
  10
-0.678405
  20
-1.238852
  30
0.000000
  40
0.250000
  50
-90.000000
  51
0.000000
  0
ARC
  8
0
  10
-0.678405
  20
-1.238852
  30
0.000000
  40
0.093750
  50
-90.000000
  51
0.000000
  0
ARC
  8
0
  10
-0.678405
  20
-1.238852
  30
0.000000
  40
0.093750
  50
180.000000
  51
-90.000000
  0
ARC
  8
0
  10
-0.678405
  20
-1.238852
  30
0.000000
  40
0.093750
  50
90.000000
  51
180.000000
  0
ARC
  8
0
  10
-0.678405
  20
-1.238852
  30
0.000000
  40
0.093750
  50
0.000000
  51
90.000000
  0
ARC
  8
0
  10
-0.128399
  20
-1.238852
  30
0.000000
  40
0.250000
  50
0.000000
  51
90.000000
  0
ARC
  8
0
  10
-0.128399
  20
-1.238852
  30
0.000000
  40
0.250000
  50
90.000000
  51
180.000000
  0
ARC
  8
0
  10
-0.128399
  20
-1.238852
  30
0.000000
  40
0.250000
  50
180.000000
  51
-90.000000
  0
ARC
  8
0
  10
-0.128399
  20
-1.238852
  30
0.000000
  40
0.250000
  50
-90.000000
  51
0.000000
  0
ARC
  8
0
  10
-0.128399
  20
-1.238852
  30
0.000000
  40
0.093750
  50
-90.000000
  51
0.000000
  0
ARC
  8
0
  10
-0.128399
  20
-1.238852
  30
0.000000
  40
0.093750
  50
180.000000
  51
-90.000000
  0
ARC
  8
0
  10
-0.128399
  20
-1.238852
  30
0.000000
  40
0.093750
  50
90.000000
  51
180.000000
  0
ARC
  8
0
  10
-0.128399
  20
-1.238852
  30
0.000000
  40
0.093750
  50
0.000000
  51
90.000000
  0
ARC
  8
0
  10
0.421608
  20
-1.238852
  30
0.000000
  40
0.250000
  50
0.000000
  51
90.000000
  0
ARC
  8
0
  10
0.421608
  20
-1.238852
  30
0.000000
  40
0.250000
  50
90.000000
  51
180.000000
  0
ARC
  8
0
  10
0.421608
  20
-1.238852
  30
0.000000
  40
0.250000
  50
180.000000
  51
-90.000000
  0
ARC
  8
0
  10
0.421608
  20
-1.238852
  30
0.000000
  40
0.250000
  50
-90.000000
  51
0.000000
  0
ARC
  8
0
  10
0.421608
  20
-1.238852
  30
0.000000
  40
0.093750
  50
-90.000000
  51
0.000000
  0
ARC
  8
0
  10
0.421608
  20
-1.238852
  30
0.000000
  40
0.093750
  50
180.000000
  51
-90.000000
  0
ARC
  8
0
  10
0.421608
  20
-1.238852
  30
0.000000
  40
0.093750
  50
90.000000
  51
180.000000
  0
ARC
  8
0
  10
0.421608
  20
-1.238852
  30
0.000000
  40
0.093750
  50
0.000000
  51
90.000000
  0
ARC
  8
0
  10
0.971615
  20
-1.238852
  30
0.000000
  40
0.250000
  50
0.000000
  51
90.000000
  0
ARC
  8
0
  10
0.971615
  20
-1.238852
  30
0.000000
  40
0.250000
  50
90.000000
  51
180.000000
  0
ARC
  8
0
  10
0.971615
  20
-1.238852
  30
0.000000
  40
0.250000
  50
180.000000
  51
-90.000000
  0
ARC
  8
0
  10
0.971615
  20
-1.238852
  30
0.000000
  40
0.250000
  50
-90.000000
  51
0.000000
  0
ARC
  8
0
  10
0.971615
  20
-1.238852
  30
0.000000
  40
0.093750
  50
-90.000000
  51
0.000000
  0
ARC
  8
0
  10
0.971615
  20
-1.238852
  30
0.000000
  40
0.093750
  50
180.000000
  51
-90.000000
  0
ARC
  8
0
  10
0.971615
  20
-1.238852
  30
0.000000
  40
0.093750
  50
90.000000
  51
180.000000
  0
ARC
  8
0
  10
0.971615
  20
-1.238852
  30
0.000000
  40
0.093750
  50
0.000000
  51
90.000000
  0
ARC
  8
0
  10
1.521621
  20
-1.238852
  30
0.000000
  40
0.250000
  50
0.000000
  51
90.000000
  0
ARC
  8
0
  10
1.521621
  20
-1.238852
  30
0.000000
  40
0.250000
  50
90.000000
  51
180.000000
  0
ARC
  8
0
  10
1.521621
  20
-1.238852
  30
0.000000
  40
0.250000
  50
180.000000
  51
-90.000000
  0
ARC
  8
0
  10
1.521621
  20
-1.238852
  30
0.000000
  40
0.250000
  50
-90.000000
  51
0.000000
  0
ARC
  8
0
  10
1.521621
  20
-1.238852
  30
0.000000
  40
0.093750
  50
-90.000000
  51
0.000000
  0
ARC
  8
0
  10
1.521621
  20
-1.238852
  30
0.000000
  40
0.093750
  50
180.000000
  51
-90.000000
  0
ARC
  8
0
  10
1.521621
  20
-1.238852
  30
0.000000
  40
0.093750
  50
90.000000
  51
180.000000
  0
ARC
  8
0
  10
1.521621
  20
-1.238852
  30
0.000000
  40
0.093750
  50
0.000000
  51
90.000000
  0
ARC
  8
0
  10
2.071628
  20
-1.238852
  30
0.000000
  40
0.250000
  50
0.000000
  51
90.000000
  0
ARC
  8
0
  10
2.071628
  20
-1.238852
  30
0.000000
  40
0.250000
  50
90.000000
  51
180.000000
  0
ARC
  8
0
  10
2.071628
  20
-1.238852
  30
0.000000
  40
0.250000
  50
180.000000
  51
-90.000000
  0
ARC
  8
0
  10
2.071628
  20
-1.238852
  30
0.000000
  40
0.250000
  50
-90.000000
  51
0.000000
  0
ARC
  8
0
  10
2.071628
  20
-1.238852
  30
0.000000
  40
0.093750
  50
-90.000000
  51
0.000000
  0
ARC
  8
0
  10
2.071628
  20
-1.238852
  30
0.000000
  40
0.093750
  50
180.000000
  51
-90.000000
  0
ARC
  8
0
  10
2.071628
  20
-1.238852
  30
0.000000
  40
0.093750
  50
90.000000
  51
180.000000
  0
ARC
  8
0
  10
2.071628
  20
-1.238852
  30
0.000000
  40
0.093750
  50
0.000000
  51
90.000000
  0
ARC
  8
0
  10
2.621635
  20
-1.238852
  30
0.000000
  40
0.250000
  50
0.000000
  51
90.000000
  0
ARC
  8
0
  10
2.621635
  20
-1.238852
  30
0.000000
  40
0.250000
  50
90.000000
  51
-180.000000
  0
ARC
  8
0
  10
2.621635
  20
-1.238852
  30
0.000000
  40
0.250000
  50
180.000000
  51
-90.000000
  0
ARC
  8
0
  10
2.621635
  20
-1.238852
  30
0.000000
  40
0.250000
  50
-90.000000
  51
0.000000
  0
ARC
  8
0
  10
2.621635
  20
-1.238852
  30
0.000000
  40
0.093750
  50
-90.000000
  51
0.000000
  0
ARC
  8
0
  10
2.621635
  20
-1.238852
  30
0.000000
  40
0.093750
  50
180.000000
  51
-90.000000
  0
ARC
  8
0
  10
2.621635
  20
-1.238852
  30
0.000000
  40
0.093750
  50
90.000000
  51
180.000000
  0
ARC
  8
0
  10
2.621635
  20
-1.238852
  30
0.000000
  40
0.093750
  50
0.000000
  51
90.000000
  0
ARC
  8
0
  10
-1.778419
  20
-1.809040
  30
0.000000
  40
0.250000
  50
0.000000
  51
90.000000
  0
ARC
  8
0
  10
-1.778419
  20
-1.809040
  30
0.000000
  40
0.250000
  50
90.000000
  51
180.000000
  0
ARC
  8
0
  10
-1.778419
  20
-1.809040
  30
0.000000
  40
0.250000
  50
-180.000000
  51
-90.000000
  0
ARC
  8
0
  10
-1.778419
  20
-1.809040
  30
0.000000
  40
0.250000
  50
-90.000000
  51
0.000000
  0
ARC
  8
0
  10
-1.778419
  20
-1.809040
  30
0.000000
  40
0.093750
  50
-90.000000
  51
0.000000
  0
ARC
  8
0
  10
-1.778419
  20
-1.809040
  30
0.000000
  40
0.093750
  50
180.000000
  51
-90.000000
  0
ARC
  8
0
  10
-1.778419
  20
-1.809040
  30
0.000000
  40
0.093750
  50
90.000000
  51
180.000000
  0
ARC
  8
0
  10
-1.778419
  20
-1.809040
  30
0.000000
  40
0.093750
  50
0.000000
  51
90.000000
  0
ARC
  8
0
  10
-1.228412
  20
-1.809040
  30
0.000000
  40
0.250000
  50
-0.000000
  51
90.000000
  0
ARC
  8
0
  10
-1.228412
  20
-1.809040
  30
0.000000
  40
0.250000
  50
90.000000
  51
180.000000
  0
ARC
  8
0
  10
-1.228412
  20
-1.809040
  30
0.000000
  40
0.250000
  50
180.000000
  51
-90.000000
  0
ARC
  8
0
  10
-1.228412
  20
-1.809040
  30
0.000000
  40
0.250000
  50
-90.000000
  51
0.000000
  0
ARC
  8
0
  10
-1.228412
  20
-1.809040
  30
0.000000
  40
0.093750
  50
-90.000000
  51
0.000000
  0
ARC
  8
0
  10
-1.228412
  20
-1.809040
  30
0.000000
  40
0.093750
  50
180.000000
  51
-90.000000
  0
ARC
  8
0
  10
-1.228412
  20
-1.809040
  30
0.000000
  40
0.093750
  50
90.000000
  51
180.000000
  0
ARC
  8
0
  10
-1.228412
  20
-1.809040
  30
0.000000
  40
0.093750
  50
0.000000
  51
90.000000
  0
ARC
  8
0
  10
3.171641
  20
-1.809040
  30
0.000000
  40
0.250000
  50
0.000000
  51
90.000000
  0
ARC
  8
0
  10
3.171641
  20
-1.809040
  30
0.000000
  40
0.250000
  50
90.000000
  51
180.000000
  0
ARC
  8
0
  10
3.171641
  20
-1.809040
  30
0.000000
  40
0.250000
  50
180.000000
  51
-90.000000
  0
ARC
  8
0
  10
3.171641
  20
-1.809040
  30
0.000000
  40
0.250000
  50
-90.000000
  51
0.000000
  0
ARC
  8
0
  10
3.171641
  20
-1.809040
  30
0.000000
  40
0.093750
  50
-90.000000
  51
0.000000
  0
ARC
  8
0
  10
3.171641
  20
-1.809040
  30
0.000000
  40
0.093750
  50
180.000000
  51
-90.000000
  0
ARC
  8
0
  10
3.171641
  20
-1.809040
  30
0.000000
  40
0.093750
  50
90.000000
  51
180.000000
  0
ARC
  8
0
  10
3.171641
  20
-1.809040
  30
0.000000
  40
0.093750
  50
0.000000
  51
90.000000
  0
ARC
  8
0
  10
-0.678405
  20
-1.809040
  30
0.000000
  40
0.250000
  50
0.000000
  51
90.000000
  0
ARC
  8
0
  10
-0.678405
  20
-1.809040
  30
0.000000
  40
0.250000
  50
90.000000
  51
180.000000
  0
ARC
  8
0
  10
-0.678405
  20
-1.809040
  30
0.000000
  40
0.250000
  50
180.000000
  51
-90.000000
  0
ARC
  8
0
  10
-0.678405
  20
-1.809040
  30
0.000000
  40
0.250000
  50
-90.000000
  51
0.000000
  0
ARC
  8
0
  10
-0.678405
  20
-1.809040
  30
0.000000
  40
0.093750
  50
-90.000000
  51
0.000000
  0
ARC
  8
0
  10
-0.678405
  20
-1.809040
  30
0.000000
  40
0.093750
  50
180.000000
  51
-90.000000
  0
ARC
  8
0
  10
-0.678405
  20
-1.809040
  30
0.000000
  40
0.093750
  50
90.000000
  51
180.000000
  0
ARC
  8
0
  10
-0.678405
  20
-1.809040
  30
0.000000
  40
0.093750
  50
0.000000
  51
90.000000
  0
ARC
  8
0
  10
-0.128399
  20
-1.809040
  30
0.000000
  40
0.250000
  50
0.000000
  51
90.000000
  0
ARC
  8
0
  10
-0.128399
  20
-1.809040
  30
0.000000
  40
0.250000
  50
90.000000
  51
180.000000
  0
ARC
  8
0
  10
-0.128399
  20
-1.809040
  30
0.000000
  40
0.250000
  50
180.000000
  51
-90.000000
  0
ARC
  8
0
  10
-0.128399
  20
-1.809040
  30
0.000000
  40
0.250000
  50
-90.000000
  51
0.000000
  0
ARC
  8
0
  10
-0.128399
  20
-1.809040
  30
0.000000
  40
0.093750
  50
-90.000000
  51
0.000000
  0
ARC
  8
0
  10
-0.128399
  20
-1.809040
  30
0.000000
  40
0.093750
  50
180.000000
  51
-90.000000
  0
ARC
  8
0
  10
-0.128399
  20
-1.809040
  30
0.000000
  40
0.093750
  50
90.000000
  51
180.000000
  0
ARC
  8
0
  10
-0.128399
  20
-1.809040
  30
0.000000
  40
0.093750
  50
0.000000
  51
90.000000
  0
ARC
  8
0
  10
0.421608
  20
-1.809040
  30
0.000000
  40
0.250000
  50
0.000000
  51
90.000000
  0
ARC
  8
0
  10
0.421608
  20
-1.809040
  30
0.000000
  40
0.250000
  50
90.000000
  51
180.000000
  0
ARC
  8
0
  10
0.421608
  20
-1.809040
  30
0.000000
  40
0.250000
  50
180.000000
  51
-90.000000
  0
ARC
  8
0
  10
0.421608
  20
-1.809040
  30
0.000000
  40
0.250000
  50
-90.000000
  51
0.000000
  0
ARC
  8
0
  10
0.421608
  20
-1.809040
  30
0.000000
  40
0.093750
  50
-90.000000
  51
0.000000
  0
ARC
  8
0
  10
0.421608
  20
-1.809040
  30
0.000000
  40
0.093750
  50
180.000000
  51
-90.000000
  0
ARC
  8
0
  10
0.421608
  20
-1.809040
  30
0.000000
  40
0.093750
  50
90.000000
  51
180.000000
  0
ARC
  8
0
  10
0.421608
  20
-1.809040
  30
0.000000
  40
0.093750
  50
0.000000
  51
90.000000
  0
ARC
  8
0
  10
0.971615
  20
-1.809040
  30
0.000000
  40
0.250000
  50
0.000000
  51
90.000000
  0
ARC
  8
0
  10
0.971615
  20
-1.809040
  30
0.000000
  40
0.250000
  50
90.000000
  51
180.000000
  0
ARC
  8
0
  10
0.971615
  20
-1.809040
  30
0.000000
  40
0.250000
  50
180.000000
  51
-90.000000
  0
ARC
  8
0
  10
0.971615
  20
-1.809040
  30
0.000000
  40
0.250000
  50
-90.000000
  51
0.000000
  0
ARC
  8
0
  10
0.971615
  20
-1.809040
  30
0.000000
  40
0.093750
  50
-90.000000
  51
0.000000
  0
ARC
  8
0
  10
0.971615
  20
-1.809040
  30
0.000000
  40
0.093750
  50
180.000000
  51
-90.000000
  0
ARC
  8
0
  10
0.971615
  20
-1.809040
  30
0.000000
  40
0.093750
  50
90.000000
  51
180.000000
  0
ARC
  8
0
  10
0.971615
  20
-1.809040
  30
0.000000
  40
0.093750
  50
0.000000
  51
90.000000
  0
ARC
  8
0
  10
1.521621
  20
-1.809040
  30
0.000000
  40
0.250000
  50
0.000000
  51
90.000000
  0
ARC
  8
0
  10
1.521621
  20
-1.809040
  30
0.000000
  40
0.250000
  50
90.000000
  51
180.000000
  0
ARC
  8
0
  10
1.521621
  20
-1.809040
  30
0.000000
  40
0.250000
  50
180.000000
  51
-90.000000
  0
ARC
  8
0
  10
1.521621
  20
-1.809040
  30
0.000000
  40
0.250000
  50
-90.000000
  51
0.000000
  0
ARC
  8
0
  10
1.521621
  20
-1.809040
  30
0.000000
  40
0.093750
  50
-90.000000
  51
0.000000
  0
ARC
  8
0
  10
1.521621
  20
-1.809040
  30
0.000000
  40
0.093750
  50
180.000000
  51
-90.000000
  0
ARC
  8
0
  10
1.521621
  20
-1.809040
  30
0.000000
  40
0.093750
  50
90.000000
  51
180.000000
  0
ARC
  8
0
  10
1.521621
  20
-1.809040
  30
0.000000
  40
0.093750
  50
0.000000
  51
90.000000
  0
ARC
  8
0
  10
2.071628
  20
-1.809040
  30
0.000000
  40
0.250000
  50
0.000000
  51
90.000000
  0
ARC
  8
0
  10
2.071628
  20
-1.809040
  30
0.000000
  40
0.250000
  50
90.000000
  51
180.000000
  0
ARC
  8
0
  10
2.071628
  20
-1.809040
  30
0.000000
  40
0.250000
  50
180.000000
  51
-90.000000
  0
ARC
  8
0
  10
2.071628
  20
-1.809040
  30
0.000000
  40
0.250000
  50
-90.000000
  51
0.000000
  0
ARC
  8
0
  10
2.071628
  20
-1.809040
  30
0.000000
  40
0.093750
  50
-90.000000
  51
0.000000
  0
ARC
  8
0
  10
2.071628
  20
-1.809040
  30
0.000000
  40
0.093750
  50
180.000000
  51
-90.000000
  0
ARC
  8
0
  10
2.071628
  20
-1.809040
  30
0.000000
  40
0.093750
  50
90.000000
  51
180.000000
  0
ARC
  8
0
  10
2.071628
  20
-1.809040
  30
0.000000
  40
0.093750
  50
0.000000
  51
90.000000
  0
ARC
  8
0
  10
2.621635
  20
-1.809040
  30
0.000000
  40
0.250000
  50
0.000000
  51
90.000000
  0
ARC
  8
0
  10
2.621635
  20
-1.809040
  30
0.000000
  40
0.250000
  50
90.000000
  51
-180.000000
  0
ARC
  8
0
  10
2.621635
  20
-1.809040
  30
0.000000
  40
0.250000
  50
180.000000
  51
-90.000000
  0
ARC
  8
0
  10
2.621635
  20
-1.809040
  30
0.000000
  40
0.250000
  50
-90.000000
  51
0.000000
  0
ARC
  8
0
  10
2.621635
  20
-1.809040
  30
0.000000
  40
0.093750
  50
-90.000000
  51
0.000000
  0
ARC
  8
0
  10
2.621635
  20
-1.809040
  30
0.000000
  40
0.093750
  50
180.000000
  51
-90.000000
  0
ARC
  8
0
  10
2.621635
  20
-1.809040
  30
0.000000
  40
0.093750
  50
90.000000
  51
180.000000
  0
ARC
  8
0
  10
2.621635
  20
-1.809040
  30
0.000000
  40
0.093750
  50
0.000000
  51
90.000000
  0
LINE
  8
0
  10
-1.778419
  20
2.245265
  30
0.000000
  11
-1.778419
  21
2.245265
  31
0.000000
  0
LINE
  8
0
  10
-1.778419
  20
2.245265
  30
0.000000
  11
-1.778419
  21
2.119281
  31
0.000000
  0
LINE
  8
0
  10
-1.778419
  20
2.119281
  30
0.000000
  11
-1.778419
  21
2.119281
  31
0.000000
  0
LINE
  8
0
  10
-1.778419
  20
2.119281
  30
0.000000
  11
-1.778419
  21
2.245265
  31
0.000000
  0
ARC
  8
0
  10
-1.228412
  20
2.752460
  30
0.000000
  40
0.250000
  50
0.000000
  51
90.000000
  0
ARC
  8
0
  10
-1.228412
  20
2.752460
  30
0.000000
  40
0.250000
  50
90.000000
  51
180.000000
  0
ARC
  8
0
  10
-1.228412
  20
2.752460
  30
0.000000
  40
0.250000
  50
180.000000
  51
-90.000000
  0
ARC
  8
0
  10
-1.228412
  20
2.752460
  30
0.000000
  40
0.250000
  50
-90.000000
  51
0.000000
  0
ARC
  8
0
  10
3.171641
  20
2.752460
  30
0.000000
  40
0.250000
  50
0.000000
  51
90.000000
  0
ARC
  8
0
  10
3.171641
  20
2.752460
  30
0.000000
  40
0.250000
  50
90.000000
  51
180.000000
  0
ARC
  8
0
  10
3.171641
  20
2.752460
  30
0.000000
  40
0.250000
  50
180.000000
  51
-90.000000
  0
ARC
  8
0
  10
3.171641
  20
2.752460
  30
0.000000
  40
0.250000
  50
-90.000000
  51
0.000000
  0
ARC
  8
0
  10
-0.128399
  20
2.752460
  30
0.000000
  40
0.250000
  50
0.000000
  51
90.000000
  0
ARC
  8
0
  10
-0.128399
  20
2.752460
  30
0.000000
  40
0.250000
  50
90.000000
  51
180.000000
  0
ARC
  8
0
  10
-0.128399
  20
2.752460
  30
0.000000
  40
0.250000
  50
180.000000
  51
-90.000000
  0
ARC
  8
0
  10
-0.128399
  20
2.752460
  30
0.000000
  40
0.250000
  50
-90.000000
  51
0.000000
  0
ARC
  8
0
  10
0.421608
  20
2.752460
  30
0.000000
  40
0.250000
  50
0.000000
  51
90.000000
  0
ARC
  8
0
  10
0.421608
  20
2.752460
  30
0.000000
  40
0.250000
  50
90.000000
  51
180.000000
  0
ARC
  8
0
  10
0.421608
  20
2.752460
  30
0.000000
  40
0.250000
  50
180.000000
  51
-90.000000
  0
ARC
  8
0
  10
0.421608
  20
2.752460
  30
0.000000
  40
0.250000
  50
-90.000000
  51
0.000000
  0
ARC
  8
0
  10
0.971615
  20
2.752460
  30
0.000000
  40
0.250000
  50
0.000000
  51
90.000000
  0
ARC
  8
0
  10
0.971615
  20
2.752460
  30
0.000000
  40
0.250000
  50
90.000000
  51
180.000000
  0
ARC
  8
0
  10
0.971615
  20
2.752460
  30
0.000000
  40
0.250000
  50
180.000000
  51
-90.000000
  0
ARC
  8
0
  10
0.971615
  20
2.752460
  30
0.000000
  40
0.250000
  50
-90.000000
  51
0.000000
  0
ARC
  8
0
  10
1.521621
  20
2.752460
  30
0.000000
  40
0.250000
  50
0.000000
  51
90.000000
  0
ARC
  8
0
  10
1.521621
  20
2.752460
  30
0.000000
  40
0.250000
  50
90.000000
  51
180.000000
  0
ARC
  8
0
  10
1.521621
  20
2.752460
  30
0.000000
  40
0.250000
  50
180.000000
  51
-90.000000
  0
ARC
  8
0
  10
1.521621
  20
2.752460
  30
0.000000
  40
0.250000
  50
-90.000000
  51
0.000000
  0
ARC
  8
0
  10
-1.228412
  20
2.752460
  30
0.000000
  40
0.250000
  50
0.000000
  51
90.000000
  0
ARC
  8
0
  10
-1.228412
  20
2.752460
  30
0.000000
  40
0.250000
  50
90.000000
  51
180.000000
  0
ARC
  8
0
  10
-1.228412
  20
2.752460
  30
0.000000
  40
0.250000
  50
180.000000
  51
-90.000000
  0
ARC
  8
0
  10
-1.228412
  20
2.752460
  30
0.000000
  40
0.250000
  50
-90.000000
  51
0.000000
  0
ARC
  8
0
  10
3.171641
  20
2.752460
  30
0.000000
  40
0.250000
  50
0.000000
  51
90.000000
  0
ARC
  8
0
  10
3.171641
  20
2.752460
  30
0.000000
  40
0.250000
  50
90.000000
  51
180.000000
  0
ARC
  8
0
  10
3.171641
  20
2.752460
  30
0.000000
  40
0.250000
  50
180.000000
  51
-90.000000
  0
ARC
  8
0
  10
3.171641
  20
2.752460
  30
0.000000
  40
0.250000
  50
-90.000000
  51
0.000000
  0
ARC
  8
0
  10
-0.128399
  20
2.752460
  30
0.000000
  40
0.250000
  50
0.000000
  51
90.000000
  0
ARC
  8
0
  10
-0.128399
  20
2.752460
  30
0.000000
  40
0.250000
  50
90.000000
  51
180.000000
  0
ARC
  8
0
  10
-0.128399
  20
2.752460
  30
0.000000
  40
0.250000
  50
180.000000
  51
-90.000000
  0
ARC
  8
0
  10
-0.128399
  20
2.752460
  30
0.000000
  40
0.250000
  50
-90.000000
  51
0.000000
  0
ARC
  8
0
  10
0.421608
  20
2.752460
  30
0.000000
  40
0.250000
  50
0.000000
  51
90.000000
  0
ARC
  8
0
  10
0.421608
  20
2.752460
  30
0.000000
  40
0.250000
  50
90.000000
  51
180.000000
  0
ARC
  8
0
  10
0.421608
  20
2.752460
  30
0.000000
  40
0.250000
  50
180.000000
  51
-90.000000
  0
ARC
  8
0
  10
0.421608
  20
2.752460
  30
0.000000
  40
0.250000
  50
-90.000000
  51
0.000000
  0
ARC
  8
0
  10
0.971615
  20
2.752460
  30
0.000000
  40
0.250000
  50
0.000000
  51
90.000000
  0
ARC
  8
0
  10
0.971615
  20
2.752460
  30
0.000000
  40
0.250000
  50
90.000000
  51
180.000000
  0
ARC
  8
0
  10
0.971615
  20
2.752460
  30
0.000000
  40
0.250000
  50
180.000000
  51
-90.000000
  0
ARC
  8
0
  10
0.971615
  20
2.752460
  30
0.000000
  40
0.250000
  50
-90.000000
  51
0.000000
  0
ARC
  8
0
  10
1.521621
  20
2.752460
  30
0.000000
  40
0.250000
  50
0.000000
  51
90.000000
  0
ARC
  8
0
  10
1.521621
  20
2.752460
  30
0.000000
  40
0.250000
  50
90.000000
  51
180.000000
  0
ARC
  8
0
  10
1.521621
  20
2.752460
  30
0.000000
  40
0.250000
  50
180.000000
  51
-90.000000
  0
ARC
  8
0
  10
1.521621
  20
2.752460
  30
0.000000
  40
0.250000
  50
-90.000000
  51
0.000000
  0
ARC
  8
0
  10
-1.778419
  20
2.182273
  30
0.000000
  40
0.250000
  50
0.000000
  51
90.000000
  0
ARC
  8
0
  10
-1.778419
  20
2.182273
  30
0.000000
  40
0.250000
  50
90.000000
  51
180.000000
  0
ARC
  8
0
  10
-1.778419
  20
2.182273
  30
0.000000
  40
0.250000
  50
-180.000000
  51
-90.000000
  0
ARC
  8
0
  10
-1.778419
  20
2.182273
  30
0.000000
  40
0.250000
  50
-90.000000
  51
0.000000
  0
ARC
  8
0
  10
-1.778419
  20
2.182273
  30
0.000000
  40
0.093750
  50
-90.000000
  51
0.000000
  0
ARC
  8
0
  10
-1.778419
  20
2.182273
  30
0.000000
  40
0.093750
  50
180.000000
  51
-90.000000
  0
ARC
  8
0
  10
-1.778419
  20
2.182273
  30
0.000000
  40
0.093750
  50
90.000000
  51
180.000000
  0
ARC
  8
0
  10
-1.778419
  20
2.182273
  30
0.000000
  40
0.093750
  50
0.000000
  51
90.000000
  0
ARC
  8
0
  10
-0.678405
  20
2.752460
  30
0.000000
  40
0.250000
  50
-90.000000
  51
0.000000
  0
ARC
  8
0
  10
-0.678405
  20
2.752460
  30
0.000000
  40
0.250000
  50
180.000000
  51
-90.000000
  0
ARC
  8
0
  10
-0.678405
  20
2.752460
  30
0.000000
  40
0.250000
  50
90.000000
  51
180.000000
  0
ARC
  8
0
  10
-0.678405
  20
2.752460
  30
0.000000
  40
0.250000
  50
0.000000
  51
90.000000
  0
ARC
  8
0
  10
-0.678405
  20
2.752460
  30
0.000000
  40
0.093750
  50
-90.000000
  51
0.000000
  0
ARC
  8
0
  10
-0.678405
  20
2.752460
  30
0.000000
  40
0.093750
  50
180.000000
  51
-90.000000
  0
ARC
  8
0
  10
-0.678405
  20
2.752460
  30
0.000000
  40
0.093750
  50
90.000000
  51
180.000000
  0
ARC
  8
0
  10
-0.678405
  20
2.752460
  30
0.000000
  40
0.093750
  50
0.000000
  51
90.000000
  0
ARC
  8
0
  10
2.071628
  20
2.752460
  30
0.000000
  40
0.250000
  50
-90.000000
  51
0.000000
  0
ARC
  8
0
  10
2.071628
  20
2.752460
  30
0.000000
  40
0.250000
  50
180.000000
  51
-90.000000
  0
ARC
  8
0
  10
2.071628
  20
2.752460
  30
0.000000
  40
0.250000
  50
90.000000
  51
180.000000
  0
ARC
  8
0
  10
2.071628
  20
2.752460
  30
0.000000
  40
0.250000
  50
0.000000
  51
90.000000
  0
ARC
  8
0
  10
2.621635
  20
2.752460
  30
0.000000
  40
0.250000
  50
-90.000000
  51
0.000000
  0
ARC
  8
0
  10
2.621635
  20
2.752460
  30
0.000000
  40
0.250000
  50
180.000000
  51
-90.000000
  0
ARC
  8
0
  10
2.621635
  20
2.752460
  30
0.000000
  40
0.250000
  50
90.000000
  51
-180.000000
  0
ARC
  8
0
  10
2.621635
  20
2.752460
  30
0.000000
  40
0.250000
  50
0.000000
  51
90.000000
  0
ARC
  8
0
  10
-0.678405
  20
2.752460
  30
0.000000
  40
0.250000
  50
-90.000000
  51
0.000000
  0
ARC
  8
0
  10
-0.678405
  20
2.752460
  30
0.000000
  40
0.250000
  50
180.000000
  51
-90.000000
  0
ARC
  8
0
  10
-0.678405
  20
2.752460
  30
0.000000
  40
0.250000
  50
90.000000
  51
180.000000
  0
ARC
  8
0
  10
-0.678405
  20
2.752460
  30
0.000000
  40
0.250000
  50
0.000000
  51
90.000000
  0
ARC
  8
0
  10
-0.678405
  20
2.752460
  30
0.000000
  40
0.093750
  50
-90.000000
  51
0.000000
  0
ARC
  8
0
  10
-0.678405
  20
2.752460
  30
0.000000
  40
0.093750
  50
180.000000
  51
-90.000000
  0
ARC
  8
0
  10
-0.678405
  20
2.752460
  30
0.000000
  40
0.093750
  50
90.000000
  51
180.000000
  0
ARC
  8
0
  10
-0.678405
  20
2.752460
  30
0.000000
  40
0.093750
  50
0.000000
  51
90.000000
  0
ARC
  8
0
  10
2.071628
  20
2.752460
  30
0.000000
  40
0.250000
  50
-90.000000
  51
0.000000
  0
ARC
  8
0
  10
2.071628
  20
2.752460
  30
0.000000
  40
0.250000
  50
180.000000
  51
-90.000000
  0
ARC
  8
0
  10
2.071628
  20
2.752460
  30
0.000000
  40
0.250000
  50
90.000000
  51
180.000000
  0
ARC
  8
0
  10
2.071628
  20
2.752460
  30
0.000000
  40
0.250000
  50
0.000000
  51
90.000000
  0
ARC
  8
0
  10
2.621635
  20
2.752460
  30
0.000000
  40
0.250000
  50
-90.000000
  51
0.000000
  0
ARC
  8
0
  10
2.621635
  20
2.752460
  30
0.000000
  40
0.250000
  50
180.000000
  51
-90.000000
  0
ARC
  8
0
  10
2.621635
  20
2.752460
  30
0.000000
  40
0.250000
  50
90.000000
  51
-180.000000
  0
ARC
  8
0
  10
2.621635
  20
2.752460
  30
0.000000
  40
0.250000
  50
0.000000
  51
90.000000
  0
ENDSEC
  0
EOF
